 MeshVersionFormatted 2
 Dimension
 3
 Vertices
 105
                    2                       4.5                         0      1
                    2                         3                         0      2
                  0.5                         3                         0      3
                  0.5                         2                         0      4
                  1.5                         2                         0      5
                    2                       1.5                         0      6
                    2                       0.5                         0      7
                  3.5                       0.5                         0      8
                  3.5                       1.5                         0      9
                    4                         2                         0      10
                    5                         2                         0      11
                    5                         3                         0      12
                  3.5                         3                         0      13
                  3.5                       4.5                         0      14
                    2            3.750000000003                         0      1
       1.250000000002                         3                         0      2
                  0.5                       2.5                         0      3
     0.99999999999965                         2                         0      4
                 1.75                      1.75                         0      5
                    2           1.0000000000024                         0      6
      2.7499999999987                       0.5                         0      7
                  3.5          0.99999999999965                         0      8
      3.7499999999992           1.7499999999992                         0      9
      4.4999999999967                         2                         0      10
                    5                       2.5                         0      11
      4.2500000000038                         3                         0      12
                  3.5           3.7499999999991                         0      13
      2.7500000000013                       4.5                         0      14
      2.7424076773567           2.3335155490768                         0      1
      2.7372448979592           1.0637755102041                         0      1
                 2.75                      3.75                         0      1
      2.1734815354713           2.0917031098154                         0      1
      3.3232048650364           2.1080117907221                         0      1
                1.125                       2.5                         0      1
                4.375                       2.5                         0      1
      2.7460564959706           1.7661676599697                         0      1
      2.7481019193392           3.0208788872692                         0      1
               1.5625                      2.75                         0      1
               1.3125                      2.25                         0      1
                 1.75                       2.5                         0      1
               4.1875                      2.25                         0      1
               3.9375                      2.75                         0      1
                 3.75                       2.5                         0      1
      3.4116024325182           2.5540058953611                         0      1
      3.6616024325182           2.0540058953611                         0      1
      1.8367407677357           2.0458515549077                         0      1
      2.0867407677357           2.5458515549077                         0      1
      2.3686224489796          0.78188775510204                         0      1
      2.3686224489796            1.281887755102                         0      1
      3.1186224489796            1.281887755102                         0      1
      3.1186224489796          0.78188775510204                         0      1
      3.0346306805035           1.9370897253459                         0      1
      3.1230282479853           1.6330838299849                         0      1
      3.4116024325182           1.8040058953611                         0      1
      2.7416506969649           1.4149715850869                         0      1
               0.8125                      2.25                         0      1
               4.6875                      2.25                         0      1
                2.375                     3.375                         0      1
                2.375                     4.125                         0      1
                3.125                     4.125                         0      1
                3.125                     3.375                         0      1
       2.457944606414           2.2126093294461                         0      1
      2.3712038386783           2.6667577745384                         0      1
      3.0328062711965           2.2207636698994                         0      1
      3.1212038386783           2.6667577745384                         0      1
      2.3730282479853           1.6330838299849                         0      1
               0.8125                      2.75                         0      1
               4.6875                      2.75                         0      1
      2.7442320866636           2.0498416045232                         0      1
      2.0867407677357           1.7958515549077                         0      1
      2.7452547983479            2.677197218173                         0      1
      2.3740509596696           3.0104394436346                         0      1
      3.1240509596696           3.0104394436346                         0      1
       2.459769015721           1.9289353848925                         0      1
      2.7490509596696           3.3854394436346                         0      1
      1.5416666666667                       2.5                         0      1
      3.9583333333333                       2.5                         0      1
      3.6077349550121            2.369337263574                         0      1
      1.8911605118238           2.3639010366051                         0      1
      2.2457482993197           1.0212585034018                         0      1
      3.2457482993197           1.0212585034013                         0      1
      3.1897537870023           1.7913931502306                         0      1
      2.9944337979766           1.4433143900579                         0      1
      1.0416666666666           2.1666666666667                         0      1
      4.4583333333328           2.1666666666667                         0      1
                 2.25           3.7500000000005                         0      1
                 3.25           3.7499999999999                         0      1
       2.305296404276           2.4750728862974                         0      1
       3.188537514131           2.4805091132663                         0      1
      2.4944337979766           1.4433143900579                         0      1
     0.70833333333333                       2.5                         0      1
      4.7916666666667                       2.5                         0      1
      2.9372230127879           2.0692316665895                         0      1
      2.7500000000002                      4.25                         0      1
      1.8911605118238           1.8639010366051                         0      1
       3.607734955012           1.8693372635739                         0      1
      2.4968365322319           2.7847981454487                         0      1
      2.9968365322319           2.7847981454487                         0      1
      2.3065126771473           1.7859569232617                         0      1
      2.4993673064464           3.2569596290897                         0      1
      2.9993673064464           3.2569596290897                         0      1
      2.5539819029329           2.0637954396206                         0      1
      1.2083333333337           2.8333333333333                         0      1
      2.7457482993195          0.68792517006803                         0      1
      4.2916666666673           2.8333333333333                         0      1
 Edges
 28
 1 15 1
 15 2 1
 2 16 2
 16 3 2
 3 17 3
 17 4 3
 4 18 4
 18 5 4
 5 19 5
 19 6 5
 6 20 6
 20 7 6
 7 21 7
 21 8 7
 8 22 8
 22 9 8
 9 23 9
 23 10 9
 10 24 10
 24 11 10
 11 25 11
 25 12 11
 12 26 12
 26 13 12
 13 27 13
 27 14 13
 14 28 14
 28 1 14
 Quadrilaterals
 90
 2 38 76 40 1
 38 34 39 76 1
 40 76 39 5 1
 10 41 77 43 1
 41 35 42 77 1
 43 77 42 13 1
 13 44 78 43 1
 44 33 45 78 1
 43 78 45 10 1
 5 46 79 40 1
 46 32 47 79 1
 40 79 47 2 1
 7 48 80 20 1
 48 30 49 80 1
 20 80 49 6 1
 9 50 81 22 1
 50 30 51 81 1
 22 81 51 8 1
 33 52 82 54 1
 52 36 53 82 1
 54 82 53 9 1
 9 53 83 50 1
 53 36 55 83 1
 50 83 55 30 1
 5 39 84 18 1
 39 34 56 84 1
 18 84 56 4 1
 11 57 85 24 1
 57 35 41 85 1
 24 85 41 10 1
 2 58 86 15 1
 58 31 59 86 1
 15 86 59 1 1
 14 60 87 27 1
 60 31 61 87 1
 27 87 61 13 1
 2 47 88 63 1
 47 32 62 88 1
 63 88 62 29 1
 29 64 89 65 1
 64 33 44 89 1
 65 89 44 13 1
 30 55 90 49 1
 55 36 66 90 1
 49 90 66 6 1
 4 56 91 17 1
 56 34 67 91 1
 17 91 67 3 1
 12 68 92 25 1
 68 35 57 92 1
 25 92 57 11 1
 29 69 93 64 1
 69 36 52 93 1
 64 93 52 33 1
 1 59 94 28 1
 59 31 60 94 1
 28 94 60 14 1
 6 70 95 19 1
 70 32 46 95 1
 19 95 46 5 1
 10 45 96 23 1
 45 33 54 96 1
 23 96 54 9 1
 29 71 97 63 1
 71 37 72 97 1
 63 97 72 2 1
 13 73 98 65 1
 73 37 71 98 1
 65 98 71 29 1
 6 66 99 70 1
 66 36 74 99 1
 70 99 74 32 1
 2 72 100 58 1
 72 37 75 100 1
 58 100 75 31 1
 31 75 101 61 1
 75 37 73 101 1
 61 101 73 13 1
 32 74 102 62 1
 74 36 69 102 1
 62 102 69 29 1
 3 67 103 16 1
 67 34 38 103 1
 16 103 38 2 1
 8 51 104 21 1
 51 30 48 104 1
 21 104 48 7 1
 13 42 105 26 1
 42 35 68 105 1
 26 105 68 12 1
 End
