 MeshVersionFormatted 2
 Dimension
 3
 Vertices
 73
                    2                       4.5                         0      1
                    2                         3                         0      2
                  0.5                         3                         0      3
                  0.5                         2                         0      4
                    2                         2                         0      5
                    2                       0.5                         0      6
                  3.5                       0.5                         0      7
                  3.5                         2                         0      8
                    5                         2                         0      9
                    5                         3                         0      10
                  3.5                         3                         0      11
                  3.5                       4.5                         0      12
                    2            3.750000000003                         0      1
       1.250000000002                         3                         0      2
                  0.5                       2.5                         0      3
                    2            1.250000000002                         0      4
      2.7499999999987                       0.5                         0      5
                  3.5            1.249999999998                         0      6
                    5                       2.5                         0      7
      4.2500000000038                         3                         0      8
                  3.5           3.7499999999991                         0      9
       1.249999999998                         2                         0      10
      4.2499999999984                         2                         0      11
      2.7500000000013                       4.5                         0      12
                 2.75                      1.25                         0      1
                 2.75                      3.75                         0      1
                 1.25                       2.5                         0      1
                 2.75                       2.5                         0      1
                 4.25                       2.5                         0      1
                2.375                     3.375                         0      1
                2.375                     4.125                         0      1
                2.375                     0.875                         0      1
                2.375                     1.625                         0      1
                3.125                     1.625                         0      1
                3.125                     0.875                         0      1
                3.125                     4.125                         0      1
                3.125                     3.375                         0      1
                2.375                      2.75                         0      1
                 2.75                     3.125                         0      1
                 2.75                     1.875                         0      1
                2.375                      2.25                         0      1
                3.125                      2.25                         0      1
                3.125                      2.75                         0      1
                    2                       2.5                         0      1
                  3.5                       2.5                         0      1
                3.875                      2.25                         0      1
                3.875                      2.75                         0      1
                1.625                      2.75                         0      1
                1.625                      2.25                         0      1
                0.875                      2.25                         0      1
                0.875                      2.75                         0      1
                4.625                      2.75                         0      1
                4.625                      2.25                         0      1
                 2.25           3.7500000000005                         0      1
                 2.25           1.2500000000003                         0      1
                 3.25           1.2499999999997                         0      1
                 3.25           3.7499999999999                         0      1
                  2.5           3.0833333333333                         0      1
                  2.5           1.9166666666667                         0      1
                    3           1.9166666666667                         0      1
                    3           3.0833333333333                         0      1
                 2.25                       2.5                         0      1
                 3.25                       2.5                         0      1
                 3.75                       2.5                         0      1
                 1.75                       2.5                         0      1
                 0.75                       2.5                         0      1
                 4.75                       2.5                         0      1
      2.7500000000002                      4.25                         0      1
      2.7499999999998                      0.75                         0      1
      1.2500000000003           2.8333333333333                         0      1
      1.2499999999997           2.1666666666667                         0      1
      4.2499999999997           2.1666666666667                         0      1
      4.2500000000006           2.8333333333333                         0      1
 Edges
 24
 1 13 1
 13 2 1
 2 14 2
 14 3 2
 3 15 3
 15 4 3
 5 16 4
 16 6 4
 6 17 5
 17 7 5
 7 18 6
 18 8 6
 9 19 7
 19 10 7
 10 20 8
 20 11 8
 11 21 9
 21 12 9
 4 22 10
 22 5 10
 8 23 11
 23 9 11
 12 24 12
 24 1 12
 Quadrilaterals
 60
 2 30 54 13 1
 30 26 31 54 1
 13 54 31 1 1
 6 32 55 16 1
 32 25 33 55 1
 16 55 33 5 1
 8 34 56 18 1
 34 25 35 56 1
 18 56 35 7 1
 12 36 57 21 1
 36 26 37 57 1
 21 57 37 11 1
 2 38 58 30 1
 38 28 39 58 1
 30 58 39 26 1
 25 40 59 33 1
 40 28 41 59 1
 33 59 41 5 1
 8 42 60 34 1
 42 28 40 60 1
 34 60 40 25 1
 26 39 61 37 1
 39 28 43 61 1
 37 61 43 11 1
 5 41 62 44 1
 41 28 38 62 1
 44 62 38 2 1
 11 43 63 45 1
 43 28 42 63 1
 45 63 42 8 1
 8 46 64 45 1
 46 29 47 64 1
 45 64 47 11 1
 2 48 65 44 1
 48 27 49 65 1
 44 65 49 5 1
 4 50 66 15 1
 50 27 51 66 1
 15 66 51 3 1
 10 52 67 19 1
 52 29 53 67 1
 19 67 53 9 1
 1 31 68 24 1
 31 26 36 68 1
 24 68 36 12 1
 7 35 69 17 1
 35 25 32 69 1
 17 69 32 6 1
 3 51 70 14 1
 51 27 48 70 1
 14 70 48 2 1
 5 49 71 22 1
 49 27 50 71 1
 22 71 50 4 1
 9 53 72 23 1
 53 29 46 72 1
 23 72 46 8 1
 11 47 73 20 1
 47 29 52 73 1
 20 73 52 10 1
 End
