 MeshVersionFormatted 2
 Dimension
 3
 Vertices
 97
                    2                       4.5                         0      1
                  1.5                       3.5                         0      2
                  0.5                         3                         0      3
                  0.5                         2                         0      4
                  1.5                       1.5                         0      5
                    2                       0.5                         0      6
                  3.5                       0.5                         0      7
                    4                       1.5                         0      8
                    5                         2                         0      9
                    5                         3                         0      10
                    4                       3.5                         0      11
                  3.5                       4.5                         0      12
      1.7500000000006           4.0000000000013                         0      1
      1.0000000000025           3.2500000000013                         0      2
                  0.5                       2.5                         0      3
      1.7499999999991           1.0000000000019                         0      4
      2.7499999999987                       0.5                         0      5
      3.7499999999995          0.99999999999906                         0      6
                    5                       2.5                         0      7
      4.5000000000033           3.2499999999984                         0      8
       3.750000000001            3.999999999998                         0      9
     0.99999999999972           1.7500000000001                         0      10
      4.4999999999974           1.7499999999987                         0      11
      2.7500000000013                       4.5                         0      12
                 2.75                       2.5                         0      1
                 2.75           3.5574890670554                         0      1
                 2.75           1.4425109329446                         0      1
                1.375                       2.5                         0      1
                4.125                       2.5                         0      1
      2.0803571428571           2.8541948667222                         0      1
      2.0829081632653           2.1361365428095                         0      1
      3.4196428571429           2.1458051332778                         0      1
      3.4170918367347           2.8638634571905                         0      1
                2.375           4.0287445335277                         0      1
                3.125           4.0287445335277                         0      1
                3.125           0.9712554664723                         0      1
                2.375           0.9712554664723                         0      1
                2.125           1.4712554664723                         0      1
                3.375           3.5287445335277                         0      1
                3.375           1.4712554664723                         0      1
                2.125           3.5287445335277                         0      1
               4.5625                      2.25                         0      1
               4.0625                         2                         0      1
               0.9375                      2.75                         0      1
               1.4375                         3                         0      1
               1.4375                         2                         0      1
               0.9375                      2.25                         0      1
               4.0625                         3                         0      1
               4.5625                      2.75                         0      1
      2.4164540816327           1.7893237378771                         0      1
      1.7914540816327           1.8180682714048                         0      1
      3.0835459183673           3.2106762621229                         0      1
      3.7085459183673           3.1819317285952                         0      1
      1.7901785714286           3.1770974333611                         0      1
      2.4151785714286           3.2058419668888                         0      1
      3.7098214285714           1.8229025666389                         0      1
      3.0848214285714           1.7941580331112                         0      1
      2.4151785714286           2.6770974333611                         0      1
                 2.75           3.0287445335277                         0      1
      3.0835459183673           2.6819317285952                         0      1
      2.4164540816327           2.3180682714048                         0      1
                 2.75           1.9712554664723                         0      1
      3.0848214285714           2.3229025666389                         0      1
      1.7289540816327           2.3180682714048                         0      1
      3.7710459183673           2.6819317285952                         0      1
      1.7276785714286           2.6770974333611                         0      1
      3.7723214285714           2.3229025666389                         0      1
      2.0816326530612           2.4951657047659                         0      1
      3.4183673469388           2.5048342952341                         0      1
      2.7500000000002           4.1858296890185                         0      1
      2.7499999999998          0.81417031098154                         0      1
      2.0833333333332           1.1475036443152                         0      1
      3.4166666666668           3.8524963556848                         0      1
      3.4166666666666           1.1475036443147                         0      1
      2.0833333333334           3.8524963556853                         0      1
      4.3749999999996           1.9999999999998                         0      1
      1.1250000000004           3.0000000000002                         0      1
                1.125                         2                         0      1
      4.3750000000005           2.9999999999997                         0      1
      2.1109693877551           1.6928824919181                         0      1
      3.3890306122449            3.307117508082                         0      1
       2.110119047619           3.3038946445925                         0      1
       3.389880952381           1.6961053554075                         0      1
     0.79166666666667                       2.5                         0      1
      4.7083333333333                       2.5                         0      1
      2.5267857142857           2.9705613112592                         0      1
      2.9723639455782           2.9737841747486                         0      1
      2.5276360544218           2.0262158252514                         0      1
      2.9732142857143           2.0294386887408                         0      1
      1.6526360544218           2.0453788476032                         0      1
      3.8473639455782           2.9546211523968                         0      1
      1.6517857142857           2.9513982889074                         0      1
      3.8482142857143           2.0486017110926                         0      1
      1.8460884353741           2.4967771365106                         0      1
      3.6539115646259           2.5032228634894                         0      1
      2.3044217687075           2.4967771365106                         0      1
      3.1955782312925           2.5032228634894                         0      1
 Edges
 24
 1 13 1
 13 2 1
 2 14 2
 14 3 2
 3 15 3
 15 4 3
 5 16 4
 16 6 4
 6 17 5
 17 7 5
 7 18 6
 18 8 6
 9 19 7
 19 10 7
 10 20 8
 20 11 8
 11 21 9
 21 12 9
 4 22 10
 22 5 10
 8 23 11
 23 9 11
 12 24 12
 24 1 12
 Quadrilaterals
 84
 1 34 70 24 1
 34 26 35 70 1
 24 70 35 12 1
 7 36 71 17 1
 36 27 37 71 1
 17 71 37 6 1
 6 37 72 16 1
 37 27 38 72 1
 16 72 38 5 1
 12 35 73 21 1
 35 26 39 73 1
 21 73 39 11 1
 8 40 74 18 1
 40 27 36 74 1
 18 74 36 7 1
 2 41 75 13 1
 41 26 34 75 1
 13 75 34 1 1
 9 42 76 23 1
 42 29 43 76 1
 23 76 43 8 1
 3 44 77 14 1
 44 28 45 77 1
 14 77 45 2 1
 5 46 78 22 1
 46 28 47 78 1
 22 78 47 4 1
 11 48 79 20 1
 48 29 49 79 1
 20 79 49 10 1
 27 50 80 38 1
 50 31 51 80 1
 38 80 51 5 1
 26 52 81 39 1
 52 33 53 81 1
 39 81 53 11 1
 2 54 82 41 1
 54 30 55 82 1
 41 82 55 26 1
 8 56 83 40 1
 56 32 57 83 1
 40 83 57 27 1
 4 47 84 15 1
 47 28 44 84 1
 15 84 44 3 1
 10 49 85 19 1
 49 29 42 85 1
 19 85 42 9 1
 26 55 86 59 1
 55 30 58 86 1
 59 86 58 25 1
 25 60 87 59 1
 60 33 52 87 1
 59 87 52 26 1
 25 61 88 62 1
 61 31 50 88 1
 62 88 50 27 1
 27 57 89 62 1
 57 32 63 89 1
 62 89 63 25 1
 5 51 90 46 1
 51 31 64 90 1
 46 90 64 28 1
 11 53 91 48 1
 53 33 65 91 1
 48 91 65 29 1
 28 66 92 45 1
 66 30 54 92 1
 45 92 54 2 1
 29 67 93 43 1
 67 32 56 93 1
 43 93 56 8 1
 28 64 94 66 1
 64 31 68 94 1
 66 94 68 30 1
 29 65 95 67 1
 65 33 69 95 1
 67 95 69 32 1
 30 68 96 58 1
 68 31 61 96 1
 58 96 61 25 1
 32 69 97 63 1
 69 33 60 97 1
 63 97 60 25 1
 End
