 MeshVersionFormatted 2
 Dimension
 3
 Vertices
 77
                    3                       4.5                         0      1
                    2                       4.5                         0      2
                  0.8                       3.7                         0      3
                  0.5                       2.5                         0      4
                    1                       1.5                         0      5
                    2                       0.5                         0      6
                    3                       0.5                         0      7
                    4                       1.5                         0      8
                  4.5                       2.5                         0      9
                  4.3                       3.7                         0      10
                  2.5                       4.5                         0      1
     0.65000000000034           3.1000000000013                         0      2
     0.74999999999978           2.0000000000004                         0      3
      1.4999999999981           1.0000000000019                         0      4
                  2.5                       0.5                         0      5
      3.4999999999998          0.99999999999983                         0      6
      4.2499999999995           1.9999999999991                         0      7
      4.4000000000002           3.0999999999987                         0      8
      1.4000000000014            4.100000000001                         0      9
      3.6500000000009           4.0999999999994                         0      10
      2.5117709026392           2.8480664440809                         0      1
      2.5016815575199           1.6592475872496                         0      1
      3.2251362354656           3.4513823317074                         0      1
      1.8532688591072           3.4638217466625                         0      1
       1.524609680865           2.5465637830944                         0      1
      3.4951180863626           2.4988687383536                         0      1
                  2.5           3.8820191158901                         0      1
      1.7508407787599           1.5796237936248                         0      1
      2.0131456191925            2.102905685172                         0      1
      1.2623048404325           2.0232818915472                         0      1
      3.2508407787599           1.5796237936248                         0      1
      3.7475590431813           1.9994343691768                         0      1
      2.9983998219413           2.0790581628016                         0      1
      3.1125681177328           3.9756911658537                         0      1
      3.7625681177328           3.5756911658537                         0      1
      3.3601271609141           2.9751255350305                         0      1
      3.8975590431813           3.0994343691768                         0      1
      3.9975590431813           2.4994343691768                         0      1
      1.0123048404325           2.5232818915472                         0      1
      1.1623048404325           3.1232818915472                         0      1
      1.3266344295536           3.5819108733313                         0      1
      1.6889392699861           3.0051927648785                         0      1
      1.9266344295536           3.9819108733313                         0      1
      2.5067262300795           2.2536570156653                         0      1
      3.0034444945009           2.6734675912172                         0      1
      2.0181902917521           2.6973151135876                         0      1
      2.7508407787599           1.0796237936248                         0      1
      2.2508407787599           1.0796237936248                         0      1
      2.8684535690524           3.1497243878941                         0      1
      2.8625681177328           3.6667007237987                         0      1
      2.5058854513196           3.3650427799855                         0      1
      2.1825198808732           3.1559440953717                         0      1
      2.1766344295536           3.6729204312763                         0      1
                 2.75            4.191009557945                         0      1
                 2.25            4.191009557945                         0      1
       1.675430412795            1.901937123448                         0      1
      3.3322665479608           1.8860387752011                         0      1
      3.5083787451553            3.883794110569                         0      1
      3.6734181072761            3.216750356687                         0      1
      4.0983726954542           2.8996229127843                         0      1
      0.9415365602884           2.9155212610317                         0      1
      1.3926261799907           3.2367951765856                         0      1
      1.5510896197026            3.887940582221                         0      1
      2.8361901821739           2.3353942565614                         0      1
       2.179354047008           2.3512926048083                         0      1
      2.5005605191733          0.88641586241655                         0      1
      2.7456357127016           3.3938226305595                         0      1
      2.2883465872488           3.3979691022112                         0      1
      1.9632164808705           2.9528173246126                         0      1
      3.0773417414891           2.9327725047139                         0      1
       1.008203226955           2.1821879276982                         0      1
      3.9983726954541            2.166289579451                         0      1
      2.9083787451552           3.9444671491992                         0      1
                  2.5           4.2940063719634                         0      1
      2.1177562863691           3.9486136208509                         0      1
      1.8338938525063           1.2197491957502                         0      1
      3.1672271858399           1.2197491957499                         0      1
 Edges
 20
 1 11 1
 11 2 1
 3 12 2
 12 4 2
 4 13 3
 13 5 3
 5 14 4
 14 6 4
 6 15 5
 15 7 5
 7 16 6
 16 8 6
 8 17 7
 17 9 7
 9 18 8
 18 10 8
 2 19 9
 19 3 9
 10 20 10
 20 1 10
 Quadrilaterals
 66
 5 28 56 30 1
 28 22 29 56 1
 30 56 29 25 1
 22 31 57 33 1
 31 8 32 57 1
 33 57 32 26 1
 10 20 58 35 1
 20 1 34 58 1
 35 58 34 23 1
 10 35 59 37 1
 35 23 36 59 1
 37 59 36 26 1
 9 18 60 38 1
 18 10 37 60 1
 38 60 37 26 1
 3 12 61 40 1
 12 4 39 61 1
 40 61 39 25 1
 24 41 62 42 1
 41 3 40 62 1
 42 62 40 25 1
 2 19 63 43 1
 19 3 41 63 1
 43 63 41 24 1
 21 44 64 45 1
 44 22 33 64 1
 45 64 33 26 1
 22 44 65 29 1
 44 21 46 65 1
 29 65 46 25 1
 6 15 66 48 1
 15 7 47 66 1
 48 66 47 22 1
 21 49 67 51 1
 49 23 50 67 1
 51 67 50 27 1
 24 52 68 53 1
 52 21 51 68 1
 53 68 51 27 1
 21 52 69 46 1
 52 24 42 69 1
 46 69 42 25 1
 23 49 70 36 1
 49 21 45 70 1
 36 70 45 26 1
 4 13 71 39 1
 13 5 30 71 1
 39 71 30 25 1
 8 17 72 32 1
 17 9 38 72 1
 32 72 38 26 1
 23 34 73 50 1
 34 1 54 73 1
 50 73 54 27 1
 1 11 74 54 1
 11 2 55 74 1
 54 74 55 27 1
 2 43 75 55 1
 43 24 53 75 1
 55 75 53 27 1
 5 14 76 28 1
 14 6 48 76 1
 28 76 48 22 1
 7 16 77 47 1
 16 8 31 77 1
 47 77 31 22 1
 End
