 MeshVersionFormatted 2
 Dimension
 3
 Vertices
 121
                    3                       4.5                         0      1
                    2                       4.5                         0      2
                    1                         4                         0      3
                  0.5                         3                         0      4
                  0.5                         2                         0      5
                    1                         1                         0      6
                    2                       0.5                         0      7
                    3                       0.5                         0      8
                    4                         1                         0      9
                  4.5                         2                         0      10
                  4.5                         3                         0      11
                    4                         4                         0      12
                  2.5                       4.5                         0      1
      1.5000000000011           4.2500000000006                         0      2
     0.75000000000014           3.5000000000003                         0      3
                  0.5                       2.5                         0      4
     0.74999999999931           1.5000000000014                         0      5
      1.4999999999986          0.75000000000069                         0      6
                  2.5                       0.5                         0      7
      3.4999999999997          0.74999999999986                         0      8
      4.2499999999994           1.4999999999989                         0      9
                  4.5                       2.5                         0      10
                 4.25                       3.5                         0      11
                  3.5                      4.25                         0      12
                  2.5           2.4985970708159                         0      1
                  2.5                    3.5625                         0      1
      1.5595918741783           3.0385404048971                         0      1
      1.5636245746256           1.9570791483525                         0      1
      3.4404081258217           3.0385404048971                         0      1
      3.4363754253744           1.9570791483525                         0      1
                  2.5                    1.4375                         0      1
      3.2362853558394            3.771897810219                         0      1
      1.7637146441606            3.771897810219                         0      1
      1.7659061436564           1.2236447870881                         0      1
      3.2340938563436           1.2236447870881                         0      1
      1.0403095239518           2.4994412695471                         0      1
      3.9596904760482           2.4994412695471                         0      1
                  2.5            3.030548535408                         0      1
      2.0297959370891           3.3005202024485                         0      1
      2.0297959370891           2.7685687378565                         0      1
      2.9702040629109           2.7685687378565                         0      1
      2.9702040629109           3.3005202024485                         0      1
      1.0297959370891           3.0192702024485                         0      1
      1.2797959370891           3.5192702024485                         0      1
      3.7202040629109           3.5192702024485                         0      1
      3.9702040629109           3.0192702024485                         0      1
      1.5616082244019           2.4978097766248                         0      1
      2.0318122873128           2.2278381095842                         0      1
      2.9681877126872           2.2278381095842                         0      1
      3.4383917755981           2.4978097766248                         0      1
                  2.5            1.968048535408                         0      1
      2.9681877126872           1.6972895741762                         0      1
      2.0318122873128           1.6972895741762                         0      1
      1.2818122873128           1.4785395741762                         0      1
      1.0318122873128           1.9785395741762                         0      1
      3.9681877126872           1.9785395741762                         0      1
      3.7181877126872           1.4785395741762                         0      1
                 2.75                   0.96875                         0      1
                 2.25                   0.96875                         0      1
                 2.25                   4.03125                         0      1
                 2.75                   4.03125                         0      1
      3.6181426779197           3.8859489051095                         0      1
      3.3383467408306            3.405219107558                         0      1
      1.6616532591694            3.405219107558                         0      1
      1.3818573220803           3.8859489051095                         0      1
      3.1181426779197           4.1359489051095                         0      1
      1.8818573220803           4.1359489051095                         0      1
       3.700049300935           2.7689908372221                         0      1
      4.2298452380241           2.7497206347736                         0      1
     0.77015476197589           2.7497206347736                         0      1
       1.299950699065           2.7689908372221                         0      1
      2.1318573220803           3.6671989051095                         0      1
      2.8681426779197           3.6671989051095                         0      1
      1.8829530718282          0.86182239354406                         0      1
      1.3829530718282           1.1118223935441                         0      1
      3.6170469281718           1.1118223935441                         0      1
      3.1170469281718          0.86182239354406                         0      1
      4.2298452380241           2.2497206347736                         0      1
      3.6980329507113           2.2282602089498                         0      1
      1.3019670492887           2.2282602089498                         0      1
     0.77015476197589           2.2497206347736                         0      1
       1.664765359141           1.5903619677203                         0      1
       3.335234640859           1.5903619677203                         0      1
      2.1329530718282           1.3305723935441                         0      1
      2.8670469281718           1.3305723935441                         0      1
      2.1865306247261           3.0332124919043                         0      1
      2.8134693752739           3.0332124919043                         0      1
      1.0198639580594           3.3461801349657                         0      1
      3.9801360419406           3.3461801349657                         0      1
      1.8744054829346           2.4980722080218                         0      1
      3.1255945170654           2.4980722080218                         0      1
      2.8121251417915           1.9643920730561                         0      1
      2.1878748582085           1.9643920730561                         0      1
      1.0212081915418           1.6523597161177                         0      1
       3.978791808458           1.6523597161173                         0      1
                  2.5                    0.8125                         0      1
                  2.5                    4.1875                         0      1
      3.5588978272204           3.6034794050387                         0      1
      1.4411021727796           3.6034794050387                         0      1
      3.4120951186131           4.0906326034063                         0      1
       1.587904881387           4.0906326034064                         0      1
      3.9666995339567           2.8459938914814                         0      1
      1.0333004660433           2.8459938914814                         0      1
      1.9411021727796           3.4576460717054                         0      1
      3.0588978272204           3.4576460717054                         0      1
      1.5886353812186          0.90788159569615                         0      1
      3.4113646187812          0.90788159569602                         0      1
      3.9653553004742           2.1521734726332                         0      1
      1.0346446995258           2.1521734726332                         0      1
      1.3878419909186           2.4983536075989                         0      1
      3.6121580090814           2.4983536075989                         0      1
      2.9120951186131            3.944799270073                         0      1
      2.0879048813869            3.944799270073                         0      1
       1.443176906094           1.3935746451469                         0      1
       3.556823093906           1.3935746451469                         0      1
      2.0886353812188           1.0537149290294                         0      1
      2.9113646187812           1.0537149290294                         0      1
       1.943176906094           1.5394079784802                         0      1
       3.056823093906           1.5394079784802                         0      1
      4.3198968253494           2.4998137565157                         0      1
     0.68010317465059           2.4998137565157                         0      1
 Edges
 24
 1 13 1
 13 2 1
 2 14 2
 14 3 2
 3 15 3
 15 4 3
 4 16 4
 16 5 4
 5 17 5
 17 6 5
 6 18 6
 18 7 6
 7 19 7
 19 8 7
 8 20 8
 20 9 8
 9 21 9
 21 10 9
 10 22 10
 22 11 10
 11 23 11
 23 12 11
 12 24 12
 24 1 12
 Quadrilaterals
 108
 25 38 86 40 1
 38 26 39 86 1
 40 86 39 27 1
 26 38 87 42 1
 38 25 41 87 1
 42 87 41 29 1
 3 15 88 44 1
 15 4 43 88 1
 44 88 43 27 1
 11 23 89 46 1
 23 12 45 89 1
 46 89 45 29 1
 25 40 90 48 1
 40 27 47 90 1
 48 90 47 28 1
 29 41 91 50 1
 41 25 49 91 1
 50 91 49 30 1
 30 49 92 52 1
 49 25 51 92 1
 52 92 51 31 1
 25 48 93 51 1
 48 28 53 93 1
 51 93 53 31 1
 5 17 94 55 1
 17 6 54 94 1
 55 94 54 28 1
 9 21 95 57 1
 21 10 56 95 1
 57 95 56 30 1
 7 19 96 59 1
 19 8 58 96 1
 59 96 58 31 1
 1 13 97 61 1
 13 2 60 97 1
 61 97 60 26 1
 29 45 98 63 1
 45 12 62 98 1
 63 98 62 32 1
 3 44 99 65 1
 44 27 64 99 1
 65 99 64 33 1
 12 24 100 62 1
 24 1 66 100 1
 62 100 66 32 1
 2 14 101 67 1
 14 3 65 101 1
 67 101 65 33 1
 11 46 102 69 1
 46 29 68 102 1
 69 102 68 37 1
 27 43 103 71 1
 43 4 70 103 1
 71 103 70 36 1
 27 39 104 64 1
 39 26 72 104 1
 64 104 72 33 1
 26 42 105 73 1
 42 29 63 105 1
 73 105 63 32 1
 6 18 106 75 1
 18 7 74 106 1
 75 106 74 34 1
 8 20 107 77 1
 20 9 76 107 1
 77 107 76 35 1
 30 56 108 79 1
 56 10 78 108 1
 79 108 78 37 1
 5 55 109 81 1
 55 28 80 109 1
 81 109 80 36 1
 28 47 110 80 1
 47 27 71 110 1
 80 110 71 36 1
 29 50 111 68 1
 50 30 79 111 1
 68 111 79 37 1
 1 61 112 66 1
 61 26 73 112 1
 66 112 73 32 1
 26 60 113 72 1
 60 2 67 113 1
 72 113 67 33 1
 28 54 114 82 1
 54 6 75 114 1
 82 114 75 34 1
 9 57 115 76 1
 57 30 83 115 1
 76 115 83 35 1
 7 59 116 74 1
 59 31 84 116 1
 74 116 84 34 1
 31 58 117 85 1
 58 8 77 117 1
 85 117 77 35 1
 31 53 118 84 1
 53 28 82 118 1
 84 118 82 34 1
 30 52 119 83 1
 52 31 85 119 1
 83 119 85 35 1
 10 22 120 78 1
 22 11 69 120 1
 78 120 69 37 1
 4 16 121 70 1
 16 5 81 121 1
 70 121 81 36 1
 End
