 MeshVersionFormatted 2
 Dimension
 3
 Vertices
 71
                    1                       4.5                         0      1
                    1                         3                         0      2
                    2                       2.8                         0      3
                    1                       2.5                         0      4
                    1                         1                         0      5
                  4.5                         1                         0      6
                  4.5                       2.5                         0      7
                  3.5                       2.8                         0      8
                  4.5                         3                         0      9
                  4.5                       4.5                         0      10
                    1            3.750000000003                         0      1
      1.4999999999987           2.9000000000003                         0      2
      1.5000000000012           2.6500000000004                         0      3
                    1           1.7500000000015                         0      4
      2.7499999999962                         1                         0      5
                  4.5           1.7499999999984                         0      6
      4.0000000000014           2.6499999999996                         0      7
      3.9999999999984           2.8999999999997                         0      8
                  4.5           3.7499999999991                         0      9
      2.7500000000052                       4.5                         0      10
      3.5402717590266           1.7794751616801                         0      1
      2.6992779239713           2.2933355097044                         0      1
      1.9647470795308             1.99436348938                         0      1
               3.8125           3.4732105263158                         0      1
      2.7470833333333            3.637201754386                         0      1
      1.6867708333333           3.4843004385965                         0      1
                 2.75                       2.8                         0      1
      2.3496389619857           2.5466677548522                         0      1
      3.0996389619857           2.5466677548522                         0      1
      3.1235416666667            3.218600877193                         0      1
      2.3735416666667            3.218600877193                         0      1
      1.3433854166667           3.2421502192982                         0      1
      1.3433854166667           3.9921502192982                         0      1
              4.15625           3.9866052631579                         0      1
              4.15625           3.2366052631579                         0      1
      1.4823735397654             1.49718174469                         0      1
      1.4823735397654             2.24718174469                         0      1
      4.0201358795133             2.13973758084                         0      1
      4.0201358795133             1.38973758084                         0      1
      3.5201358795133             2.28973758084                         0      1
      1.9823735397654             2.39718174469                         0      1
      1.8433854166667           3.1421502192982                         0      1
              3.65625           3.1366052631579                         0      1
      2.2169270833333           3.5607510964912                         0      1
      3.2797916666667           3.5552061403509                         0      1
      3.1197748414989           2.0364053356923                         0      1
       2.332012501751           2.1438494995422                         0      1
      1.8735416666667            4.068600877193                         0      1
      3.6235416666667            4.068600877193                         0      1
      2.2701358795133             1.38973758084                         0      1
      2.7525094192787             1.88691932553                         0      1
      2.7330926413238           2.6311118365681                         0      1
      2.7490277777778            3.079067251462                         0      1
      1.2289236111111           3.6614334795327                         0      1
      4.2708333333333           3.6577368421051                         0      1
      1.3215823598436           1.8314544964602                         0      1
      4.1800905863422           1.7598250538931                         0      1
      3.8467572530091           2.3598250538933                         0      1
      1.6549156931771             2.43145449646                         0      1
      1.5622569444442           3.0947668128655                         0      1
      3.9374999999997           3.0910701754385                         0      1
      2.1446180555556           3.3071673976608                         0      1
      3.3531944444444           3.3034707602339                         0      1
      3.2465165609993           2.2909368904615                         0      1
       2.221341667834           2.3625663330281                         0      1
      2.7490277777786           4.2124005847953                         0      1
      1.8112847222222           3.8738340643275                         0      1
      3.0134239196749           1.2598250538934                         0      1
      2.1683396128524           1.5912795503533                         0      1
      3.6865277777778           3.8701374269006                         0      1
      2.7347655875095           2.0223913869215                         0      1
 Edges
 20
 1 11 1
 11 2 1
 2 12 2
 12 3 2
 3 13 3
 13 4 3
 4 14 4
 14 5 4
 5 15 5
 15 6 5
 6 16 6
 16 7 6
 7 17 7
 17 8 7
 8 18 8
 18 9 8
 9 19 9
 19 10 9
 10 20 10
 20 1 10
 Quadrilaterals
 60
 8 27 52 29 1
 27 3 28 52 1
 29 52 28 22 1
 3 27 53 31 1
 27 8 30 53 1
 31 53 30 25 1
 1 11 54 33 1
 11 2 32 54 1
 33 54 32 26 1
 9 19 55 35 1
 19 10 34 55 1
 35 55 34 24 1
 4 14 56 37 1
 14 5 36 56 1
 37 56 36 23 1
 6 16 57 39 1
 16 7 38 57 1
 39 57 38 21 1
 7 17 58 38 1
 17 8 40 58 1
 38 58 40 21 1
 3 13 59 41 1
 13 4 37 59 1
 41 59 37 23 1
 2 12 60 32 1
 12 3 42 60 1
 32 60 42 26 1
 8 18 61 43 1
 18 9 35 61 1
 43 61 35 24 1
 3 31 62 42 1
 31 25 44 62 1
 42 62 44 26 1
 8 43 63 30 1
 43 24 45 63 1
 30 63 45 25 1
 21 40 64 46 1
 40 8 29 64 1
 46 64 29 22 1
 22 28 65 47 1
 28 3 41 65 1
 47 65 41 23 1
 10 20 66 49 1
 20 1 48 66 1
 49 66 48 25 1
 25 48 67 44 1
 48 1 33 67 1
 44 67 33 26 1
 5 15 68 50 1
 15 6 39 68 1
 50 68 39 21 1
 5 50 69 36 1
 50 21 51 69 1
 36 69 51 23 1
 24 34 70 45 1
 34 10 49 70 1
 45 70 49 25 1
 21 46 71 51 1
 46 22 47 71 1
 51 71 47 23 1
 End
