 MeshVersionFormatted 2
 Dimension
 3
 Vertices
 45
                    2                       4.5                         0      1
                    2                         3                         0      2
                  0.5                         3                         0      3
                  0.5                       1.5                         0      4
                  4.5                       1.5                         0      5
                  4.5                         3                         0      6
                    3                         3                         0      7
                    3                       4.5                         0      8
                    2            3.750000000003                         0      1
       1.250000000002                         3                         0      2
                  0.5           2.2500000000017                         0      3
      2.4999999999925                       1.5                         0      4
                  4.5           2.2499999999982                         0      5
       3.750000000003                         3                         0      6
                    3           3.7499999999991                         0      7
                  2.5                       4.5                         0      8
                  2.5                      3.75                         0      1
                2.375                     2.375                         0      1
              3.59375                   2.46875                         0      1
               1.4375                    2.6875                         0      1
               2.1875                    2.6875                         0      1
             3.296875                  2.734375                         0      1
             4.046875                  2.734375                         0      1
                 2.75                     3.375                         0      1
                 2.25                     3.375                         0      1
                  2.5                         3                         0      1
                 2.25                     4.125                         0      1
                 2.75                     4.125                         0      1
               1.4375                    1.9375                         0      1
             4.046875                  1.984375                         0      1
               3.4375                    1.9375                         0      1
             2.984375                  2.421875                         0      1
               2.6875                    2.6875                         0      1
      1.6250000000003           2.7916666666667                         0      1
      3.6979166666672           2.8229166666667                         0      1
                  2.5                      3.25                         0      1
                  2.5                      4.25                         0      1
                1.125            2.291666666667                         0      1
      4.1979166666667           2.3229166666664                         0      1
      2.1666666666667           3.7500000000005                         0      1
      2.4583333333321           1.7916666666667                         0      1
      3.4895833333333           2.1145833333333                         0      1
      2.8333333333333           3.7499999999999                         0      1
      2.4583333333333           2.7916666666667                         0      1
      2.9895833333333           2.6145833333333                         0      1
 Edges
 16
 1 9 1
 9 2 1
 2 10 2
 10 3 2
 3 11 3
 11 4 3
 4 12 4
 12 5 4
 5 13 5
 13 6 5
 6 14 6
 14 7 6
 7 15 7
 15 8 7
 8 16 8
 16 1 8
 Quadrilaterals
 36
 3 20 34 10 1
 20 18 21 34 1
 10 34 21 2 1
 7 22 35 14 1
 22 19 23 35 1
 14 35 23 6 1
 7 24 36 26 1
 24 17 25 36 1
 26 36 25 2 1
 1 27 37 16 1
 27 17 28 37 1
 16 37 28 8 1
 4 29 38 11 1
 29 18 20 38 1
 11 38 20 3 1
 6 23 39 13 1
 23 19 30 39 1
 13 39 30 5 1
 2 25 40 9 1
 25 17 27 40 1
 9 40 27 1 1
 5 31 41 12 1
 31 18 29 41 1
 12 41 29 4 1
 5 30 42 31 1
 30 19 32 42 1
 31 42 32 18 1
 8 28 43 15 1
 28 17 24 43 1
 15 43 24 7 1
 2 21 44 26 1
 21 18 33 44 1
 26 44 33 7 1
 18 32 45 33 1
 32 19 22 45 1
 33 45 22 7 1
 End
