 MeshVersionFormatted 2
 Dimension
 3
 Vertices
 27
                  1.5                         5                         0      1
                    1                       3.5                         0      2
                    0                         3                         0      3
                    0                       1.5                         0      4
                  4.5                       1.5                         0      5
                  4.5                         3                         0      6
                  3.5                       3.5                         0      7
                    3                         5                         0      8
      1.2500000000011           4.2500000000034                         0      1
     0.50000000000172           3.2500000000009                         0      2
                    0           2.2500000000017                         0      3
      2.2499999999924                       1.5                         0      4
                  4.5           2.2499999999982                         0      5
      4.0000000000019            3.249999999999                         0      6
      3.2500000000007            4.249999999998                         0      7
      2.2500000000017                         5                         0      8
                    2                      4.25                         0      1
                  0.5                       2.5                         0      1
                 2.25                       3.5                         0      1
                 1.75                       2.5                         0      1
                    4                       2.5                         0      1
      1.8333333333338           4.5000000000006                         0      1
     0.33333333333362           2.6666666666671                         0      1
                  1.5           2.8333333333333                         0      1
      2.5000000000001           3.9999999999997                         0      1
      2.6666666666654           2.1666666666667                         0      1
       4.166666666667           2.6666666666662                         0      1
 Edges
 16
 1 9 1
 9 2 1
 2 10 2
 10 3 2
 3 11 3
 11 4 3
 4 12 4
 12 5 4
 5 13 5
 13 6 5
 6 14 6
 14 7 6
 7 15 7
 15 8 7
 8 16 8
 16 1 8
 Quadrilaterals
 18
 8 16 22 17 1
 16 1 9 22 1
 17 22 9 2 1
 4 18 23 11 1
 18 2 10 23 1
 11 23 10 3 1
 7 19 24 20 1
 19 2 18 24 1
 20 24 18 4 1
 8 17 25 15 1
 17 2 19 25 1
 15 25 19 7 1
 7 20 26 21 1
 20 4 12 26 1
 21 26 12 5 1
 7 21 27 14 1
 21 5 13 27 1
 14 27 13 6 1
 End
