 MeshVersionFormatted 2
 Dimension
 3
 Vertices
 33
                    2                       4.5                         0      1
                    2                         3                         0      2
                  0.5                         3                         0      3
                  0.5                         2                         0      4
                  4.5                         2                         0      5
                  4.5                         3                         0      6
                    3                         3                         0      7
                    3                       4.5                         0      8
                    2            3.750000000003                         0      1
       1.250000000002                         3                         0      2
                  0.5                       2.5                         0      3
      2.4999999999925                         2                         0      4
                  4.5                       2.5                         0      5
       3.750000000003                         3                         0      6
                    3           3.7499999999991                         0      7
                  2.5                       4.5                         0      8
                  2.5                      3.75                         0      1
                 1.25                       2.5                         0      1
                 3.75                       2.5                         0      1
                 2.75                     3.375                         0      1
                 2.25                     3.375                         0      1
                  2.5                         3                         0      1
                 2.25                     4.125                         0      1
                 2.75                     4.125                         0      1
                 1.75                       2.5                         0      1
      1.0000000000003           2.6666666666667                         0      1
      4.0000000000005           2.6666666666667                         0      1
                  2.5                      3.25                         0      1
                  2.5                      4.25                         0      1
      2.1666666666667           3.7500000000005                         0      1
      1.8333333333333           2.6666666666667                         0      1
      2.6666666666654           2.3333333333333                         0      1
      2.8333333333333           3.7499999999999                         0      1
 Edges
 16
 1 9 1
 9 2 1
 2 10 2
 10 3 2
 3 11 3
 11 4 3
 4 12 4
 12 5 4
 5 13 5
 13 6 5
 6 14 6
 14 7 6
 7 15 7
 15 8 7
 8 16 8
 16 1 8
 Quadrilaterals
 24
 4 18 26 11 1
 18 2 10 26 1
 11 26 10 3 1
 7 19 27 14 1
 19 5 13 27 1
 14 27 13 6 1
 7 20 28 22 1
 20 17 21 28 1
 22 28 21 2 1
 1 23 29 16 1
 23 17 24 29 1
 16 29 24 8 1
 2 21 30 9 1
 21 17 23 30 1
 9 30 23 1 1
 7 22 31 25 1
 22 2 18 31 1
 25 31 18 4 1
 7 25 32 19 1
 25 4 12 32 1
 19 32 12 5 1
 8 24 33 15 1
 24 17 20 33 1
 15 33 20 7 1
 End
