 MeshVersionFormatted 2
 Dimension
 3
 Vertices
 25
                  2.5                       4.5                         0      1
                    1                       3.5                         0      2
                    1                         2                         0      3
                  2.5                         1                         0      4
                    4                         2                         0      5
                    4                       3.5                         0      6
      1.7500000000018           4.0000000000012                         0      1
                    1           2.7500000000013                         0      2
      1.7499999999983           1.5000000000012                         0      3
      3.2499999999985            1.499999999999                         0      4
                    4           2.7499999999987                         0      5
      3.2500000000017           3.9999999999989                         0      6
                  2.5                      2.75                         0      1
                 1.75                     3.125                         0      1
                  2.5                     3.625                         0      1
                 3.25                     3.125                         0      1
                  2.5                     1.875                         0      1
                 1.75                     2.375                         0      1
                 3.25                     2.375                         0      1
      2.0000000000003           3.5833333333335                         0      1
      3.0000000000003           3.5833333333331                         0      1
      1.9999999999997           1.9166666666669                         0      1
      2.9999999999997           1.9166666666665                         0      1
                  1.5           2.7500000000002                         0      1
                  3.5           2.7499999999998                         0      1
 Edges
 12
 1 7 1
 7 2 1
 2 8 2
 8 3 2
 3 9 3
 9 4 3
 4 10 4
 10 5 4
 5 11 5
 11 6 5
 6 12 6
 12 1 6
 Quadrilaterals
 18
 1 7 20 15 1
 7 2 14 20 1
 15 20 14 13 1
 6 12 21 16 1
 12 1 15 21 1
 16 21 15 13 1
 3 9 22 18 1
 9 4 17 22 1
 18 22 17 13 1
 4 10 23 17 1
 10 5 19 23 1
 17 23 19 13 1
 2 8 24 14 1
 8 3 18 24 1
 14 24 18 13 1
 5 11 25 19 1
 11 6 16 25 1
 19 25 16 13 1
 End
