 MeshVersionFormatted 2
 Dimension
 3
 Vertices
 19
                  0.5                       4.5                         0      1
                  0.5                         1                         0      2
                    4                         1                         0      3
                    4                       2.5                         0      4
                    2                       2.5                         0      5
                    2                       4.5                         0      6
                  0.5           2.7500000000052                         0      1
       2.249999999996                         1                         0      2
                    4           1.7499999999984                         0      3
      3.0000000000028                       2.5                         0      4
                    2           3.4999999999977                         0      5
       1.250000000002                       4.5                         0      6
                 1.25                      1.75                         0      1
                 1.25                       3.5                         0      1
                    3                      1.75                         0      1
                    1           2.6666666666675                         0      1
       2.166666666666                       1.5                         0      1
      1.5000000000003           3.8333333333329                         0      1
      3.3333333333338           1.9999999999997                         0      1
 Edges
 12
 1 7 1
 7 2 1
 2 8 2
 8 3 2
 3 9 3
 9 4 3
 4 10 4
 10 5 4
 5 11 5
 11 6 5
 6 12 6
 12 1 6
 Quadrilaterals
 12
 2 13 16 7 1
 13 5 14 16 1
 7 16 14 1 1
 3 15 17 8 1
 15 5 13 17 1
 8 17 13 2 1
 5 11 18 14 1
 11 6 12 18 1
 14 18 12 1 1
 4 10 19 9 1
 10 5 15 19 1
 9 19 15 3 1
 End
