 MeshVersionFormatted 2
 Dimension
 3
 Vertices
 19
                  0.5                       4.5                         0      1
                  0.5                         1                         0      2
                    4                         1                         0      3
                    4                       2.5                         0      4
                    3                       3.5                         0      5
                    2                       4.5                         0      6
                  0.5           2.7500000000052                         0      1
       2.249999999996                         1                         0      2
                    4           1.7499999999984                         0      3
                  3.5                         3                         0      4
      2.5000000000008           3.9999999999992                         0      5
       1.250000000002                       4.5                         0      6
                 1.25                      2.75                         0      1
                  3.5                      2.25                         0      1
                 1.75                      2.25                         0      1
      1.0000000000003           3.3333333333342                         0      1
      2.4999999999993           1.8333333333333                         0      1
      1.8333333333335           2.9999999999999                         0      1
      3.6666666666667           2.3333333333331                         0      1
 Edges
 12
 1 7 1
 7 2 1
 2 8 2
 8 3 2
 3 9 3
 9 4 3
 4 10 4
 10 5 4
 5 11 5
 11 6 5
 6 12 6
 12 1 6
 Quadrilaterals
 12
 2 13 16 7 1
 13 6 12 16 1
 7 16 12 1 1
 3 14 17 8 1
 14 5 15 17 1
 8 17 15 2 1
 5 11 18 15 1
 11 6 13 18 1
 15 18 13 2 1
 4 10 19 9 1
 10 5 14 19 1
 9 19 14 3 1
 End
