 MeshVersionFormatted 2
 Dimension
 3
 Vertices
 27
            4.9999998                -4.9999998        5.551114901081E-16      1
            4.9999998                 4.9999998        5.551114901081E-16      2
           -4.9999998                 4.9999998       -5.551114901081E-16      3
           -4.9999998                -4.9999998       -5.551114901081E-16      4
            4.9999998                -2.4999999        5.551114901081E-16      1
            4.9999998       8.8817841970013E-16        5.551114901081E-16      1
            4.9999998                 2.4999999        5.551114901081E-16      1
           -2.4999999                 4.9999998      -2.7755574505405E-16      2
  8.8817841970013E-16                 4.9999998       9.8607613152626E-32      2
            2.4999999                 4.9999998       2.7755574505405E-16      2
           -4.9999998                -2.4999999       -5.551114901081E-16      3
           -4.9999998       8.8817841970013E-16       -5.551114901081E-16      3
           -4.9999998                 2.4999999       -5.551114901081E-16      3
           -2.4999999                -4.9999998      -2.7755574505405E-16      4
  8.8817841970013E-16                -4.9999998       9.8607613152626E-32      4
            2.4999999                -4.9999998       2.7755574505405E-16      4
            2.4999999                 2.4999999       2.7755574505405E-16      1
           -2.4999999                 2.4999999      -2.7755574505405E-16      1
                    0       8.8817841970013E-16                         0      1
            2.4999999                -2.4999999       2.7755574505405E-16      1
           -2.4999999                -2.4999999      -2.7755574505405E-16      1
  8.8817838417299E-16                 1.6666666       9.8607609208319E-32      1
            3.3333332                -3.3333332       3.7007432673873E-16      1
           -3.3333332                -3.3333332      -3.7007432673873E-16      1
                    0                -1.6666666                         0      1
           -3.3333332                 3.3333332      -3.7007432673873E-16      1
            3.3333332                 3.3333332       3.7007432673873E-16      1
 Edges
 16
 1 5 1
 5 6 1
 6 7 1
 7 2 1
 3 8 2
 8 9 2
 9 10 2
 10 2 2
 4 11 3
 11 12 3
 12 13 3
 13 3 3
 4 14 4
 14 15 4
 15 16 4
 16 1 4
 Quadrilaterals
 18
 6 17 22 19 1
 17 9 18 22 1
 19 22 18 12 1
 6 20 23 5 1
 20 15 16 23 1
 5 23 16 1 1
 15 21 24 14 1
 21 12 11 24 1
 14 24 11 4 1
 6 19 25 20 1
 19 12 21 25 1
 20 25 21 15 1
 12 18 26 13 1
 18 9 8 26 1
 13 26 8 3 1
 9 17 27 10 1
 17 6 7 27 1
 10 27 7 2 1
 End
