 MeshVersionFormatted 2
 Dimension
 3
 Vertices
 11
                    0                         0                         0      1
                    1                         0                         0      2
                    1                         1                         0      3
                    0                         1                         0      4
                  0.5                         0                         0      1
                    1                       0.5                         0      2
                  0.5                         1                         0      3
                    0                       0.5                         0      4
                  0.5                       0.5                         0      1
     0.33333333333333          0.33333333333333                         0      1
     0.66666666666667          0.66666666666667                         0      1
 Edges
 8
 1 5 1
 5 2 1
 2 6 2
 6 3 2
 3 7 3
 7 4 3
 4 8 4
 8 1 4
 Quadrilaterals
 6
 4 8 10 9 1
 8 1 5 10 1
 9 10 5 2 1
 4 9 11 7 1
 9 2 6 11 1
 7 11 6 3 1
 End
