 MeshVersionFormatted 2
 Dimension
 3
 Vertices
 79
                  2.5                         5                         0      1
                  0.5                       4.5                         0      2
                  0.5                         3                         0      3
                    2                         3                         0      4
                  0.5                       2.5                         0      5
                  0.5                         1                         0      6
                  2.5                       0.5                         0      7
                  4.5                         1                         0      8
                  4.5                       2.5                         0      9
                    3                         3                         0      10
                  4.5                         3                         0      11
                  4.5                       4.5                         0      12
      1.5000000000037           4.7500000000009                         0      1
                  0.5            3.750000000003                         0      2
       1.249999999998                         3                         0      3
      1.2500000000023           2.7500000000008                         0      4
                  0.5           1.7500000000015                         0      5
      1.4999999999979          0.75000000000052                         0      6
      3.4999999999976          0.74999999999941                         0      7
                  4.5           1.7499999999984                         0      8
      3.7500000000032           2.7499999999989                         0      9
      3.7499999999991                         3                         0      10
                  4.5           3.7499999999991                         0      11
      3.5000000000015           4.7499999999996                         0      12
      3.4166666666667                      1.75                         0      1
      1.5833333333333                      1.75                         0      1
                  2.5           2.0882734045999                         0      1
                  1.6                    3.8875                         0      1
                  3.4                    3.8875                         0      1
                  2.5           3.8899937526031                         0      1
                 1.05                   4.19375                         0      1
                 2.05                   4.44375                         0      1
                 2.95                   4.44375                         0      1
                 3.95                   4.19375                         0      1
      3.2083333333333                     2.375                         0      1
      3.9583333333333                     2.125                         0      1
      1.0416666666667                     2.125                         0      1
      1.7916666666667                     2.375                         0      1
      2.0416666666667                     1.125                         0      1
      1.0416666666667                     1.375                         0      1
      3.9583333333333                     1.375                         0      1
      2.9583333333333                     1.125                         0      1
                  1.8                   3.44375                         0      1
                 1.05                   3.44375                         0      1
                 3.95                   3.44375                         0      1
                  3.2                   3.44375                         0      1
                 2.05           3.8887468763015                         0      1
                  2.5           4.4449968763015                         0      1
                 2.95           3.8887468763015                         0      1
                 2.75              2.5441367023                         0      1
      2.9583333333333              1.9191367023                         0      1
      2.0416666666667              1.9191367023                         0      1
                 2.25              2.5441367023                         0      1
                  2.5              1.2941367023                         0      1
                 2.75           3.4449968763015                         0      1
                 2.25           3.4449968763015                         0      1
                  2.5                         3                         0      1
       1.533333333334           4.4625000000002                         0      1
      3.4666666666669           4.4624999999999                         0      1
      3.6388888888894           2.4166666666665                         0      1
      1.3611111111115           2.4166666666668                         0      1
      1.5277777777774           1.0833333333334                         0      1
      3.4722222222218           1.0833333333332                         0      1
      1.3666666666663           3.2958333333333                         0      1
      3.6333333333332           3.2958333333333                         0      1
                  2.2            4.259164584201                         0      1
                  2.8            4.259164584201                         0      1
     0.86111111111111           1.7500000000003                         0      1
      4.1388888888889           1.7499999999997                         0      1
      2.9722222222222              2.2794244682                         0      1
      2.0277777777778              2.2794244682                         0      1
      2.1944444444444           1.4460911348666                         0      1
      2.8055555555556           1.4460911348666                         0      1
     0.86666666666667           3.7958333333338                         0      1
      4.1333333333333           3.7958333333332                         0      1
      2.9666666666667           3.5924979175344                         0      1
      2.0333333333333           3.5924979175344                         0      1
                  2.5           2.6960911348666                         0      1
                  2.5            3.296664584201                         0      1
 Edges
 24
 1 13 1
 13 2 1
 2 14 2
 14 3 2
 3 15 3
 15 4 3
 4 16 4
 16 5 4
 5 17 5
 17 6 5
 6 18 6
 18 7 6
 7 19 7
 19 8 7
 8 20 8
 20 9 8
 9 21 9
 21 10 9
 10 22 10
 22 11 10
 11 23 11
 23 12 11
 12 24 12
 24 1 12
 Quadrilaterals
 66
 1 13 58 32 1
 13 2 31 58 1
 32 58 31 28 1
 12 24 59 34 1
 24 1 33 59 1
 34 59 33 29 1
 9 21 60 36 1
 21 10 35 60 1
 36 60 35 25 1
 4 16 61 38 1
 16 5 37 61 1
 38 61 37 26 1
 6 18 62 40 1
 18 7 39 62 1
 40 62 39 26 1
 7 19 63 42 1
 19 8 41 63 1
 42 63 41 25 1
 3 15 64 44 1
 15 4 43 64 1
 44 64 43 28 1
 10 22 65 46 1
 22 11 45 65 1
 46 65 45 29 1
 1 32 66 48 1
 32 28 47 66 1
 48 66 47 30 1
 29 33 67 49 1
 33 1 48 67 1
 49 67 48 30 1
 5 17 68 37 1
 17 6 40 68 1
 37 68 40 26 1
 8 20 69 41 1
 20 9 36 69 1
 41 69 36 25 1
 25 35 70 51 1
 35 10 50 70 1
 51 70 50 27 1
 4 38 71 53 1
 38 26 52 71 1
 53 71 52 27 1
 26 39 72 52 1
 39 7 54 72 1
 52 72 54 27 1
 7 42 73 54 1
 42 25 51 73 1
 54 73 51 27 1
 2 14 74 31 1
 14 3 44 74 1
 31 74 44 28 1
 11 23 75 45 1
 23 12 34 75 1
 45 75 34 29 1
 10 46 76 55 1
 46 29 49 76 1
 55 76 49 30 1
 28 43 77 47 1
 43 4 56 77 1
 47 77 56 30 1
 10 57 78 50 1
 57 4 53 78 1
 50 78 53 27 1
 4 57 79 56 1
 57 10 55 79 1
 56 79 55 30 1
 End
