 MeshVersionFormatted 2
 Dimension
 3
 Vertices
 65
                  0.5                       4.5                         0      1
                  0.5                         3                         0      2
                    2                         3                         0      3
                  0.5                       2.5                         0      4
                  0.5                         1                         0      5
                  4.5                         1                         0      6
                  4.5                       2.5                         0      7
                    3                         3                         0      8
                  4.5                         3                         0      9
                  4.5                       4.5                         0      10
                  0.5            3.750000000003                         0      1
       1.249999999998                         3                         0      2
      1.2500000000023           2.7500000000008                         0      3
                  0.5           1.7500000000015                         0      4
                  4.5           1.7499999999984                         0      5
      3.7500000000032           2.7499999999989                         0      6
      3.7499999999991                         3                         0      7
                  4.5           3.7499999999991                         0      8
      2.4999999999925                         1                         0      9
      2.5000000000063                       4.5                         0      10
      3.3437803692906           1.8694525429219                         0      1
      1.9101854055519           1.8357433190315                         0      1
      2.5634914437106           2.4262989654884                         0      1
                2.375                     3.625                         0      1
              3.59375                   3.53125                         0      1
      3.1718901846453            2.434726271461                         0      1
      3.9218901846453            2.184726271461                         0      1
       1.205092702776           2.1678716595158                         0      1
       1.955092702776           2.4178716595158                         0      1
               2.1875                    3.3125                         0      1
               1.4375                    3.3125                         0      1
             4.046875                  3.265625                         0      1
             3.296875                  3.265625                         0      1
                  2.5                         3                         0      1
      2.2817457218553           2.7131494827442                         0      1
      2.7817457218553           2.7131494827442                         0      1
      2.9536359065006           2.1478757542051                         0      1
      2.2368384246313           2.1310211422599                         0      1
       1.205092702776           1.4178716595158                         0      1
      3.9218901846453            1.434726271461                         0      1
               1.4375                    4.0625                         0      1
             4.046875                  4.015625                         0      1
               3.4375                    4.0625                         0      1
       3.205092702776           1.4178716595158                         0      1
      2.6269828874212           1.8525979309767                         0      1
             2.984375                  3.578125                         0      1
               2.6875                    3.3125                         0      1
      3.6145934564307           2.4564841809738                         0      1
       1.470061801851           2.4452477730106                         0      1
      1.6249999999997           3.2083333333333                         0      1
      3.6979166666665           3.1770833333333                         0      1
      2.5211638145702           2.8087663218295                         0      1
      2.9690906043337           2.4319171694701                         0      1
      2.1578922830875           2.4206807615066                         0      1
     0.97006180185064           1.7785811063441                         0      1
      4.1145934564302            1.789817514307                         0      1
                1.125           3.7083333333338                         0      1
      4.1979166666667           3.6770833333332                         0      1
      2.4583333333344           4.2083333333333                         0      1
      2.3033951351827           1.2785811063438                         0      1
      3.2513219249475           1.5683986206512                         0      1
      3.4895833333333           3.8854166666667                         0      1
       2.605819072851           2.0438316091473                         0      1
      2.4583333333333           3.2083333333333                         0      1
      2.9895833333333           3.3854166666667                         0      1
 Edges
 20
 1 11 1
 11 2 1
 2 12 2
 12 3 2
 3 13 3
 13 4 3
 4 14 4
 14 5 4
 6 15 5
 15 7 5
 7 16 6
 16 8 6
 8 17 7
 17 9 7
 9 18 8
 18 10 8
 5 19 9
 19 6 9
 10 20 10
 20 1 10
 Quadrilaterals
 54
 7 16 48 27 1
 16 8 26 48 1
 27 48 26 21 1
 3 13 49 29 1
 13 4 28 49 1
 29 49 28 22 1
 2 12 50 31 1
 12 3 30 50 1
 31 50 30 24 1
 8 17 51 33 1
 17 9 32 51 1
 33 51 32 25 1
 8 34 52 36 1
 34 3 35 52 1
 36 52 35 23 1
 21 26 53 37 1
 26 8 36 53 1
 37 53 36 23 1
 3 29 54 35 1
 29 22 38 54 1
 35 54 38 23 1
 4 14 55 28 1
 14 5 39 55 1
 28 55 39 22 1
 6 15 56 40 1
 15 7 27 56 1
 40 56 27 21 1
 1 11 57 41 1
 11 2 31 57 1
 41 57 31 24 1
 9 18 58 32 1
 18 10 42 58 1
 32 58 42 25 1
 10 20 59 43 1
 20 1 41 59 1
 43 59 41 24 1
 5 19 60 39 1
 19 6 44 60 1
 39 60 44 22 1
 6 40 61 44 1
 40 21 45 61 1
 44 61 45 22 1
 10 43 62 42 1
 43 24 46 62 1
 42 62 46 25 1
 22 45 63 38 1
 45 21 37 63 1
 38 63 37 23 1
 3 34 64 30 1
 34 8 47 64 1
 30 64 47 24 1
 24 47 65 46 1
 47 8 33 65 1
 46 65 33 25 1
 End
