 MeshVersionFormatted 2
 Dimension
 3
 Vertices
 59
                    1                       4.5                         0      1
                  0.5                         3                         0      2
                    1                       1.5                         0      3
                  2.5                         1                         0      4
                  4.5                       1.5                         0      5
                  4.5                       2.5                         0      6
                    3                         3                         0      7
                  4.5                       3.5                         0      8
                  4.5                       4.5                         0      9
                  2.5                         5                         0      10
     0.75000000000098           3.7500000000029                         0      1
     0.74999999999942           2.2500000000017                         0      2
      1.7499999999986           1.2500000000005                         0      3
      3.4999999999978           1.2499999999994                         0      4
                  4.5           1.9999999999988                         0      5
      3.7500000000032           2.7499999999989                         0      6
      3.7499999999987           3.2499999999996                         0      7
                  4.5           3.9999999999983                         0      8
      3.5000000000015           4.7499999999996                         0      9
      1.7500000000014           4.7500000000005                         0      10
      3.3724489795918           2.0595238095238                         0      1
      3.3115384615385           3.9653846153846                         0      1
      2.0716902145474           2.3977411477411                         0      1
      2.0608449292852           3.7335206365819                         0      1
      2.9362244897959           1.5297619047619                         0      1
      2.7220695970696           2.2286324786325                         0      1
      2.2858451072737           1.6988705738706                         0      1
      3.1862244897959           2.5297619047619                         0      1
      2.5358451072737           2.6988705738706                         0      1
      3.9362244897959           2.2797619047619                         0      1
      3.9057692307692           3.7326923076923                         0      1
      3.1557692307692           3.4826923076923                         0      1
      1.5358451072737           1.9488705738706                         0      1
      1.2804224646426           3.3667603182909                         0      1
      1.5304224646426           4.1167603182909                         0      1
      1.2858451072737           2.6988705738706                         0      1
      2.0662675719163           3.0656308921615                         0      1
      3.9362244897959           1.7797619047619                         0      1
      3.9057692307692           4.2326923076923                         0      1
      2.9057692307692           4.4826923076923                         0      1
      2.2804224646426           4.3667603182909                         0      1
      2.6861916954118           3.8494526259832                         0      1
      2.5304224646426           3.3667603182909                         0      1
      2.6480463980464           1.8190883190883                         0      1
      2.8147130647131            2.485754985755                         0      1
      3.6241496598645           2.5198412698411                         0      1
      3.6038461538459           3.4884615384615                         0      1
      1.8572300715155           1.6325803825805                         0      1
      1.1869483097619           3.7445068788611                         0      1
      1.5441783812775           3.0437539281077                         0      1
      4.1241496598639           2.0198412698411                         0      1
      4.1038461538462           3.9884615384613                         0      1
      2.6241277969412           4.2329684173222                         0      1
       1.190563404849           2.2992470492473                         0      1
      1.8536149764286           4.4111735455274                         0      1
      2.7907944636079           3.5663017506555                         0      1
      2.3775117146108           3.0437539281077                         0      1
      3.4574829931969           1.5198412698412                         0      1
      3.4371794871797           4.4884615384615                         0      1
 Edges
 20
 1 11 1
 11 2 1
 2 12 2
 12 3 2
 3 13 3
 13 4 3
 4 14 4
 14 5 4
 5 15 5
 15 6 5
 6 16 6
 16 7 6
 7 17 7
 17 8 7
 8 18 8
 18 9 8
 9 19 9
 19 10 9
 10 20 10
 20 1 10
 Quadrilaterals
 48
 4 25 44 27 1
 25 21 26 44 1
 27 44 26 23 1
 21 28 45 26 1
 28 7 29 45 1
 26 45 29 23 1
 6 16 46 30 1
 16 7 28 46 1
 30 46 28 21 1
 7 17 47 32 1
 17 8 31 47 1
 32 47 31 22 1
 3 13 48 33 1
 13 4 27 48 1
 33 48 27 23 1
 1 11 49 35 1
 11 2 34 49 1
 35 49 34 24 1
 2 36 50 34 1
 36 23 37 50 1
 34 50 37 24 1
 5 15 51 38 1
 15 6 30 51 1
 38 51 30 21 1
 8 18 52 31 1
 18 9 39 52 1
 31 52 39 22 1
 22 40 53 42 1
 40 10 41 53 1
 42 53 41 24 1
 2 12 54 36 1
 12 3 33 54 1
 36 54 33 23 1
 10 20 55 41 1
 20 1 35 55 1
 41 55 35 24 1
 7 32 56 43 1
 32 22 42 56 1
 43 56 42 24 1
 23 29 57 37 1
 29 7 43 57 1
 37 57 43 24 1
 4 14 58 25 1
 14 5 38 58 1
 25 58 38 21 1
 9 19 59 39 1
 19 10 40 59 1
 39 59 40 22 1
 End
