 MeshVersionFormatted 2
 Dimension
 3
 Vertices
 47
                    1                       4.5                         0      1
                  0.5                         3                         0      2
                    1                       1.5                         0      3
                  2.5                         1                         0      4
                  4.5                       1.5                         0      5
                  4.5                       2.9                         0      6
                  2.5                         3                         0      7
                  4.5                       3.2                         0      8
                  4.5                       4.5                         0      9
                  2.5                         5                         0      10
     0.75000000000098           3.7500000000029                         0      1
     0.74999999999942           2.2500000000017                         0      2
      1.7499999999986           1.2500000000005                         0      3
      3.4999999999978           1.2499999999994                         0      4
                  4.5           2.1999999999953                         0      5
      3.5000000000016           2.9499999999999                         0      6
      3.4999999999977           3.0999999999998                         0      7
                  4.5           3.8499999999979                         0      8
      3.5000000000015           4.7499999999996                         0      9
      1.7500000000014           4.7500000000005                         0      10
                3.425                      3.85                         0      1
               3.4625                       2.2                         0      1
               2.9625                     4.425                         0      1
               3.9625                     4.175                         0      1
              3.98125                      1.85                         0      1
              2.98125                       1.6                         0      1
                  1.5                         3                         0      1
                 1.75                      3.75                         0      1
                  2.5                         4                         0      1
                 1.75                      2.25                         0      1
                  2.5                         2                         0      1
               3.9625                     3.525                         0      1
               2.9625                     3.425                         0      1
              2.98125                       2.6                         0      1
              3.98125                      2.55                         0      1
      3.4750000000002           4.4499999999999                         0      1
      3.4874999999996           1.5666666666666                         0      1
      1.3333333333335           3.5000000000005                         0      1
      2.0000000000002           4.1666666666667                         0      1
      1.3333333333332           2.5000000000003                         0      1
      1.9999999999998           1.8333333333334                         0      1
      3.4749999999996                      3.35                         0      1
      3.4875000000003                       2.7                         0      1
      2.8083333333333                      3.95                         0      1
      2.8208333333333           2.0666666666667                         0      1
      4.1416666666667           3.8499999999997                         0      1
      4.1541666666667           2.1999999999992                         0      1
 Edges
 20
 1 11 1
 11 2 1
 2 12 2
 12 3 2
 3 13 3
 13 4 3
 4 14 4
 14 5 4
 5 15 5
 15 6 5
 6 16 6
 16 7 6
 7 17 7
 17 8 7
 8 18 8
 18 9 8
 9 19 9
 19 10 9
 10 20 10
 20 1 10
 Quadrilaterals
 36
 9 19 36 24 1
 19 10 23 36 1
 24 36 23 21 1
 4 14 37 26 1
 14 5 25 37 1
 26 37 25 22 1
 2 27 38 11 1
 27 7 28 38 1
 11 38 28 1 1
 7 29 39 28 1
 29 10 20 39 1
 28 39 20 1 1
 3 30 40 12 1
 30 7 27 40 1
 12 40 27 2 1
 4 31 41 13 1
 31 7 30 41 1
 13 41 30 3 1
 7 17 42 33 1
 17 8 32 42 1
 33 42 32 21 1
 6 16 43 35 1
 16 7 34 43 1
 35 43 34 22 1
 10 29 44 23 1
 29 7 33 44 1
 23 44 33 21 1
 7 31 45 34 1
 31 4 26 45 1
 34 45 26 22 1
 8 18 46 32 1
 18 9 24 46 1
 32 46 24 21 1
 5 15 47 25 1
 15 6 35 47 1
 25 47 35 22 1
 End
