 MeshVersionFormatted 2
 Dimension
 3
 Vertices
 23
                    4                       4.5                         0      1
                  0.5                       4.5                         0      2
                  0.5                         1                         0      3
                    4                         1                         0      4
                    4                       2.5                         0      5
                  2.5                       2.7                         0      6
                    4                         3                         0      7
      2.2500000000037                       4.5                         0      1
                  0.5           2.7500000000052                         0      2
       2.249999999996                         1                         0      3
                    4           1.7499999999984                         0      4
      3.2500000000013           2.5999999999998                         0      5
      3.2499999999988           2.8499999999998                         0      6
                    4           3.7499999999991                         0      7
                 3.25                      1.85                         0      1
                  1.5                      1.85                         0      1
                  1.5                       3.6                         0      1
                 3.25                       3.6                         0      1
      2.3333333333327           1.5666666666667                         0      1
       2.333333333334                       3.9                         0      1
      3.4999999999998           3.3999999999998                         0      1
      1.1666666666667           2.7333333333342                         0      1
      3.5000000000002           2.0666666666664                         0      1
 Edges
 14
 1 8 1
 8 2 1
 2 9 2
 9 3 2
 3 10 3
 10 4 3
 4 11 4
 11 5 4
 5 12 5
 12 6 5
 6 13 6
 13 7 6
 7 14 7
 14 1 7
 Quadrilaterals
 15
 4 15 19 10 1
 15 6 16 19 1
 10 19 16 3 1
 2 17 20 8 1
 17 6 18 20 1
 8 20 18 1 1
 6 13 21 18 1
 13 7 14 21 1
 18 21 14 1 1
 3 16 22 9 1
 16 6 17 22 1
 9 22 17 2 1
 5 12 23 11 1
 12 6 15 23 1
 11 23 15 4 1
 End
