 MeshVersionFormatted 2
 Dimension
 3
 Vertices
 17
                    1                         4                         0      1
                    1                         1                         0      2
                    4                         1                         0      3
                    4                         4                         0      4
                    1            2.500000000004                         0      1
       2.499999999996                         1                         0      2
                    4            2.499999999996                         0      3
       2.500000000004                         4                         0      4
                  2.5                       2.5                         0      1
                 1.75                      1.75                         0      1
                 1.75                      3.25                         0      1
                 3.25                      3.25                         0      1
                 3.25                      1.75                         0      1
                  1.5           2.5000000000007                         0      1
      2.5000000000007                       3.5                         0      1
      2.4999999999993                       1.5                         0      1
                  3.5           2.4999999999993                         0      1
 Edges
 8
 1 5 1
 5 2 1
 2 6 2
 6 3 2
 3 7 3
 7 4 3
 4 8 4
 8 1 4
 Quadrilaterals
 12
 1 5 14 11 1
 5 2 10 14 1
 11 14 10 9 1
 4 8 15 12 1
 8 1 11 15 1
 12 15 11 9 1
 2 6 16 10 1
 6 3 13 16 1
 10 16 13 9 1
 3 7 17 13 1
 7 4 12 17 1
 13 17 12 9 1
 End
