$MeshFormat
4.1 0 8
$EndMeshFormat
$Entities
7 7 1 0
1 0.31 3.7 0 0 
2 0.31 1.72 0 0 
3 1.95 1.8 0 0 
4 4.51 1.66 0 0 
5 3.86 2.66 0 0 
6 4.73 3.81 0 0 
7 1.89 3.36 0 0 
1 0.31 1.72 0 0.31 3.7 0 0 2 1 -2 
2 0.3100000000000001 1.72 0 1.95 1.8 0 0 2 2 -3 
3 1.95 1.66 0 4.51 1.8 0 0 2 3 -4 
4 3.86 1.66 0 4.51 2.66 0 0 2 4 -5 
5 3.86 2.66 0 4.73 3.81 0 0 2 5 -6 
6 1.89 3.36 0 4.73 3.81 0 0 2 6 -7 
7 0.3100000000000001 3.36 0 1.89 3.7 0 0 2 7 -1 
1 0.3100000000000001 1.66 0 4.73 3.81 0 0 7 1 2 3 4 5 6 7 
$EndEntities
$Nodes
15 29 1 29
0 1 0 1
1
0.31 3.7 0
0 2 0 1
2
0.31 1.72 0
0 3 0 1
3
1.95 1.8 0
0 4 0 1
4
4.51 1.66 0
0 5 0 1
5
3.86 2.66 0
0 6 0 1
6
4.73 3.81 0
0 7 0 1
7
1.89 3.36 0
1 1 0 1
8
0.31 2.710000000003379 0
1 2 0 1
9
1.129999999997437 1.759999999999875 0
1 3 0 1
10
3.229999999994476 1.730000000000302 0
1 4 0 1
11
4.185000000001513 2.159999999997672 0
1 5 0 1
12
4.294999999998032 3.234999999997399 0
1 6 0 1
13
3.310000000004254 3.585000000000674 0
1 7 0 1
14
1.100000000002006 3.529999999999569 0
2 1 0 15
15
16
17
18
19
20
21
22
23
24
25
26
27
28
29
1.115 2.645 0
0.7124999999999999 2.1825 0
0.7125 3.1725 0
1.5025 3.0025 0
1.5325 2.2225 0
1.92 2.58 0
2.875 3.01 0
2.905 2.23 0
0.5783333333333333 2.688333333333896 0
1.105000000000334 3.234999999999928 0
1.124999999999573 2.054999999999979 0
1.651666666666667 2.601666666666667 0
3.493333333333715 3.276666666666345 0
3.439999999999332 2.039999999999663 0
2.566666666666666 2.606666666666666 0
$EndNodes
$Elements
15 42 1 42
0 1 15 1
1 1 
0 2 15 1
2 2 
0 3 15 1
3 3 
0 4 15 1
4 4 
0 5 15 1
5 5 
0 6 15 1
6 6 
0 7 15 1
7 7 
1 1 1 2
8 1 8 
9 8 2 
1 2 1 2
10 2 9 
11 9 3 
1 3 1 2
12 3 10 
13 10 4 
1 4 1 2
14 4 11 
15 11 5 
1 5 1 2
16 5 12 
17 12 6 
1 6 1 2
18 6 13 
19 13 7 
1 7 1 2
20 7 14 
21 14 1 
2 1 3 21
22 1 8 23 17 
23 8 2 16 23 
24 17 23 16 15 
25 7 14 24 18 
26 14 1 17 24 
27 18 24 17 15 
28 2 9 25 16 
29 9 3 19 25 
30 16 25 19 15 
31 3 20 26 19 
32 20 7 18 26 
33 19 26 18 15 
34 6 13 27 12 
35 13 7 21 27 
36 12 27 21 5 
37 4 11 28 10 
38 11 5 22 28 
39 10 28 22 3 
40 5 21 29 22 
41 21 7 20 29 
42 22 29 20 3 
$EndElements
