$MeshFormat
4.1 0 8
$EndMeshFormat
$Entities
6 6 1 0
1 0.5 4.5 0 0 
2 1 1.5 0 0 
3 4.5 0.5 0 0 
4 3.8 2.1 0 0 
5 4 4 0 0 
6 2.3 3.7 0 0 
1 0.5 1.5 0 1 4.5 0 0 2 1 -2 
2 1 0.5 0 4.5 1.5 0 0 2 2 -3 
3 3.8 0.5 0 4.5 2.1 0 0 2 3 -4 
4 2.3 3.7 0 4 4 0 0 2 5 -6 
5 3.8 2.1 0 4 4 0 0 2 4 -5 
6 0.5 3.7 0 2.3 4.5 0 0 2 6 -1 
1 0.5 0.5 0 4.5 4.5 0 0 6 1 2 3 5 4 6 
$EndEntities
$Nodes
13 33 1 33
0 1 0 1
1
0.5 4.5 0
0 2 0 1
2
1 1.5 0
0 3 0 1
3
4.5 0.5 0
0 4 0 1
4
3.8 2.1 0
0 5 0 1
5
4 4 0
0 6 0 1
6
2.3 3.7 0
1 1 0 3
7
8
9
0.6250000000001009 3.749999999999395 0
0.7499999999999997 3.000000000000002 0
0.8750000000000127 2.249999999999924 0
1 2 0 3
10
11
12
1.875000000000306 1.249999999999913 0
2.750000000000797 0.9999999999997724 0
3.625000000000905 0.7499999999997415 0
1 3 0 1
13
4.150000000000643 1.29999999999853 0
1 4 0 1
14
3.150000000005128 3.850000000000905 0
1 5 0 1
15
3.899999999999835 3.049999999998431 0
1 6 0 1
16
1.400000000001925 4.099999999999144 0
2 1 0 17
17
18
19
20
21
22
23
24
25
26
27
28
29
30
31
32
33
2.120000000000159 2.259999999999955 0
3.05 2.9 0
2.210000000000079 2.979999999999977 0
2.960000000000079 2.179999999999978 0
1.525 3.350000000000001 0
3.275000000000398 1.549999999999886 0
2.435000000000478 1.629999999999864 0
1.56000000000008 1.879999999999977 0
1.43500000000008 2.629999999999979 0
3.366666666667494 3.266666666666556 0
2.740000000000053 2.686666666666652 0
1.183333333333671 3.733333333333091 0
3.683333333333791 1.199999999999655 0
1.95666666666697 1.586666666666581 0
2.890000000000319 1.786666666666576 0
1.723333333333386 2.986666666666653 0
1.290000000000055 2.253333333333306 0
$EndNodes
$Elements
13 46 1 46
0 1 15 1
1 1 
0 2 15 1
2 2 
0 3 15 1
3 3 
0 4 15 1
4 4 
0 5 15 1
5 5 
0 6 15 1
6 6 
1 1 1 4
7 1 7 
8 7 8 
9 8 9 
10 9 2 
1 2 1 4
11 2 10 
12 10 11 
13 11 12 
14 12 3 
1 3 1 2
15 3 13 
16 13 4 
1 4 1 2
17 5 14 
18 14 6 
1 5 1 2
19 4 15 
20 15 5 
1 6 1 2
21 6 16 
22 16 1 
2 1 3 24
23 5 14 26 15 
24 14 6 18 26 
25 15 26 18 4 
26 4 18 27 20 
27 18 6 19 27 
28 20 27 19 17 
29 8 21 28 7 
30 21 6 16 28 
31 7 28 16 1 
32 4 22 29 13 
33 22 11 12 29 
34 13 29 12 3 
35 2 10 30 24 
36 10 11 23 30 
37 24 30 23 17 
38 11 22 31 23 
39 22 4 20 31 
40 23 31 20 17 
41 6 21 32 19 
42 21 8 25 32 
43 19 32 25 17 
44 8 9 33 25 
45 9 2 24 33 
46 25 33 24 17 
$EndElements
