 MeshVersionFormatted 2
 Dimension
 3
 Vertices
 33
                  0.5                       4.5                         0      1
                    1                       1.5                         0      2
                  4.5                       0.5                         0      3
                  3.8                       2.1                         0      4
                    4                         4                         0      5
                  2.3                       3.7                         0      6
      0.6250000000001           3.7499999999994                         0      1
                 0.75                         3                         0      1
     0.87500000000001           2.2499999999999                         0      1
      1.8750000000003           1.2499999999999                         0      2
      2.7500000000008          0.99999999999977                         0      2
      3.6250000000009          0.74999999999974                         0      2
      4.1500000000006           1.2999999999985                         0      3
      3.1500000000051           3.8500000000009                         0      4
      3.8999999999998           3.0499999999984                         0      5
      1.4000000000019           4.0999999999991                         0      6
      2.1200000000002                      2.26                         0      1
                 3.05                       2.9                         0      1
      2.2100000000001                      2.98                         0      1
      2.9600000000001                      2.18                         0      1
                1.525                      3.35                         0      1
      3.2750000000004           1.5499999999999                         0      1
      2.4350000000005           1.6299999999999                         0      1
      1.5600000000001                      1.88                         0      1
      1.4350000000001                      2.63                         0      1
      3.3666666666675           3.2666666666666                         0      1
      2.7400000000001           2.6866666666667                         0      1
      1.1833333333337           3.7333333333331                         0      1
      3.6833333333338           1.1999999999997                         0      1
       1.956666666667           1.5866666666666                         0      1
      2.8900000000003           1.7866666666666                         0      1
      1.7233333333334           2.9866666666667                         0      1
      1.2900000000001           2.2533333333333                         0      1
 Edges
 16
 1 7 1
 7 8 1
 8 9 1
 9 2 1
 2 10 2
 10 11 2
 11 12 2
 12 3 2
 3 13 3
 13 4 3
 5 14 4
 14 6 4
 4 15 5
 15 5 5
 6 16 6
 16 1 6
 Quadrilaterals
 24
 5 14 26 15 1
 14 6 18 26 1
 15 26 18 4 1
 4 18 27 20 1
 18 6 19 27 1
 20 27 19 17 1
 8 21 28 7 1
 21 6 16 28 1
 7 28 16 1 1
 4 22 29 13 1
 22 11 12 29 1
 13 29 12 3 1
 2 10 30 24 1
 10 11 23 30 1
 24 30 23 17 1
 11 22 31 23 1
 22 4 20 31 1
 23 31 20 17 1
 6 21 32 19 1
 21 8 25 32 1
 19 32 25 17 1
 8 9 33 25 1
 9 2 24 33 1
 25 33 24 17 1
 End
