$MeshFormat
4.1 0 8
$EndMeshFormat
$Entities
52 52 1 0
1 0.1 4 0 0 
2 0.1 3.5 0 0 
3 0.8 3.5 0 0 
4 0.8 2 0 0 
5 0.1 2 0 0 
6 0.1 1.5 0 0 
7 0.8 1.5 0 0 
8 1.3 1.5 0 0 
9 1.5 1.5 0 0 
10 1.9 1.5 0 0 
11 2.1 3 0 0 
12 2.5 2.1 0 0 
13 2.8 3 0 0 
14 3.1 1.5 0 0 
15 3.4 1.5 0 0 
16 3.8 1.5 0 0 
17 3.8 2 0 0 
18 3.8 2.3 0 0 
19 4.05 1.9 0 0 
20 4.3 1.5 0 0 
21 4.7 1.5 0 0 
22 4.4 2.1 0 0 
23 4.2 2.5 0 0 
24 4.6 2.6 0 0 
25 4.8 2.9 0 0 
26 4.8 3.5 0 0 
27 4.6 3.9 0 0 
28 4.2 4 0 0 
29 3.8 4 0 0 
30 3.4 4 0 0 
31 3.4 3.6 0 0 
32 3.4 2.9 0 0 
33 3.4 2.5 0 0 
34 3.4 2 0 0 
35 3.1 4 0 0 
36 2.7 4 0 0 
37 2.5 3.3 0 0 
38 2.2 4 0 0 
39 1.7 4 0 0 
40 1.3 4 0 0 
41 0.8 4 0 0 
42 3.8 3.6 0 0 
43 3.8 3.25 0 0 
44 3.8 2.9 0 0 
45 4.1 2.9 0 0 
46 4.3 3.1 0 0 
47 4.3 3.4 0 0 
48 4.1 3.6 0 0 
49 1.3 2 0 0 
50 1.5 2 0 0 
51 1.7 3.5 0 0 
52 1.3 3.5 0 0 
1 0.1 3.5 0 0.1 4 0 0 2 1 -2 
2 0.1 3.5 0 0.8 3.5 0 0 2 2 -3 
3 0.8 2 0 0.8 3.5 0 0 2 3 -4 
4 0.09999999999999998 2 0 0.8 2 0 0 2 4 -5 
5 0.1 1.5 0 0.1 2 0 0 2 5 -6 
6 0.1 1.5 0 0.8 1.5 0 0 2 6 -7 
7 0.8 1.5 0 1.3 1.5 0 0 2 7 -8 
8 1.3 1.5 0 1.5 1.5 0 0 2 8 -9 
9 1.5 1.5 0 1.9 1.5 0 0 2 9 -10 
10 1.9 1.5 0 2.1 3 0 0 2 10 -11 
11 2.1 2.1 0 2.5 3 0 0 2 11 -12 
12 2.5 2.1 0 2.8 3 0 0 2 12 -13 
13 2.8 1.5 0 3.1 3 0 0 2 13 -14 
14 3.1 1.5 0 3.4 1.5 0 0 2 14 -15 
15 3.4 1.5 0 3.8 1.5 0 0 2 15 -16 
16 3.8 1.5 0 3.8 2 0 0 2 16 -17 
17 3.8 2 0 3.8 2.3 0 0 2 17 -18 
18 3.8 1.9 0 4.05 2.3 0 0 2 18 -19 
19 4.05 1.5 0 4.3 1.9 0 0 2 19 -20 
20 4.3 1.5 0 4.7 1.5 0 0 2 20 -21 
21 4.4 1.5 0 4.7 2.1 0 0 2 21 -22 
22 4.2 2.1 0 4.4 2.5 0 0 2 22 -23 
23 4.2 2.5 0 4.6 2.6 0 0 2 23 -24 
24 4.6 2.6 0 4.8 2.9 0 0 2 24 -25 
25 4.8 2.9 0 4.8 3.5 0 0 2 25 -26 
26 4.6 3.5 0 4.8 3.9 0 0 2 26 -27 
27 4.2 3.9 0 4.6 4 0 0 2 27 -28 
28 3.8 4 0 4.2 4 0 0 2 28 -29 
29 3.4 4 0 3.8 4 0 0 2 29 -30 
30 3.4 3.6 0 3.4 4 0 0 2 30 -31 
31 3.4 2.9 0 3.4 3.6 0 0 2 31 -32 
32 3.4 2.5 0 3.4 2.9 0 0 2 32 -33 
33 3.1 2 0 3.4 4 0 0 2 34 -35 
34 2.7 4 0 3.1 4 0 0 2 35 -36 
35 2.5 3.3 0 2.7 4 0 0 2 36 -37 
36 2.2 3.3 0 2.5 4 0 0 2 37 -38 
37 1.7 4 0 2.2 4 0 0 2 38 -39 
38 1.3 4 0 1.7 4 0 0 2 39 -40 
39 0.8 4 0 1.3 4 0 0 2 40 -41 
40 3.4 2 0 3.4 2.5 0 0 2 33 -34 
41 3.8 3.25 0 3.8 3.6 0 0 2 42 -43 
42 3.8 2.9 0 3.8 3.25 0 0 2 43 -44 
43 3.8 2.9 0 4.1 2.9 0 0 2 44 -45 
44 4.3 3.1 0 4.3 3.4 0 0 2 46 -47 
45 4.1 3.4 0 4.3 3.6 0 0 2 47 -48 
46 4.1 2.9 0 4.3 3.1 0 0 2 45 -46 
47 1.3 2 0 1.5 2 0 0 2 49 -50 
48 1.5 2 0 1.7 3.5 0 0 2 50 -51 
49 1.3 3.5 0 1.7 3.5 0 0 2 51 -52 
50 0.09999999999999998 4 0 0.8 4 0 0 2 41 -1 
51 3.8 3.6 0 4.1 3.6 0 0 2 48 -42 
52 1.3 2 0 1.3 3.5 0 0 2 52 -49 
1 0.1000000000000001 1.5 0 4.8 4 0 0 52 1 2 3 4 5 6 7 8 9 10 11 12 13 14 15 16 17 18 19 20 21 22 23 24 25 26 27 28 29 30 31 32 40 33 34 35 36 37 38 39 50 -51 -45 -44 -46 -43 -42 -41 -52 -49 -48 -47 
$EndEntities
$Nodes
105 445 1 445
0 1 0 1
1
0.1 4 0
0 2 0 1
2
0.1 3.5 0
0 3 0 1
3
0.8 3.5 0
0 4 0 1
4
0.8 2 0
0 5 0 1
5
0.1 2 0
0 6 0 1
6
0.1 1.5 0
0 7 0 1
7
0.8 1.5 0
0 8 0 1
8
1.3 1.5 0
0 9 0 1
9
1.5 1.5 0
0 10 0 1
10
1.9 1.5 0
0 11 0 1
11
2.1 3 0
0 12 0 1
12
2.5 2.1 0
0 13 0 1
13
2.8 3 0
0 14 0 1
14
3.1 1.5 0
0 15 0 1
15
3.4 1.5 0
0 16 0 1
16
3.8 1.5 0
0 17 0 1
17
3.8 2 0
0 18 0 1
18
3.8 2.3 0
0 19 0 1
19
4.05 1.9 0
0 20 0 1
20
4.3 1.5 0
0 21 0 1
21
4.7 1.5 0
0 22 0 1
22
4.4 2.1 0
0 23 0 1
23
4.2 2.5 0
0 24 0 1
24
4.6 2.6 0
0 25 0 1
25
4.8 2.9 0
0 26 0 1
26
4.8 3.5 0
0 27 0 1
27
4.6 3.9 0
0 28 0 1
28
4.2 4 0
0 29 0 1
29
3.8 4 0
0 30 0 1
30
3.4 4 0
0 31 0 1
31
3.4 3.6 0
0 32 0 1
32
3.4 2.9 0
0 33 0 1
33
3.4 2.5 0
0 34 0 1
34
3.4 2 0
0 35 0 1
35
3.1 4 0
0 36 0 1
36
2.7 4 0
0 37 0 1
37
2.5 3.3 0
0 38 0 1
38
2.2 4 0
0 39 0 1
39
1.7 4 0
0 40 0 1
40
1.3 4 0
0 41 0 1
41
0.8 4 0
0 42 0 1
42
3.8 3.6 0
0 43 0 1
43
3.8 3.25 0
0 44 0 1
44
3.8 2.9 0
0 45 0 1
45
4.1 2.9 0
0 46 0 1
46
4.3 3.1 0
0 47 0 1
47
4.3 3.4 0
0 48 0 1
48
4.1 3.6 0
0 49 0 1
49
1.3 2 0
0 50 0 1
50
1.5 2 0
0 51 0 1
51
1.7 3.5 0
0 52 0 1
52
1.3 3.5 0
1 1 0 1
53
0.1 3.75000000000164 0
1 2 0 1
54
0.44999999999917 3.5 0
1 3 0 3
55
56
57
0.8 3.125000000000115 0
0.8 2.75 0
0.8 2.374999999999908 0
1 4 0 1
58
0.4500000000010534 2 0
1 5 0 1
59
0.1 1.75 0
1 6 0 1
60
0.44999999999917 1.5 0
1 7 0 1
61
1.0499999999995 1.5 0
1 8 0 1
62
1.4 1.5 0
1 9 0 1
63
1.69999999999929 1.5 0
1 10 0 5
64
65
66
67
68
1.933333333333248 1.749999999999361 0
1.966666666666462 1.999999999998462 0
1.999999999999739 2.249999999998042 0
2.033333333333231 2.499999999999229 0
2.066666666666582 2.74999999999937 0
1 11 0 3
69
70
71
2.199999999999451 2.775000000001236 0
2.299999999999284 2.55000000000161 0
2.399999999999604 2.32500000000089 0
1 12 0 3
72
73
74
2.574999999999562 2.324999999998687 0
2.649999999999835 2.549999999999506 0
2.724999999999885 2.774999999999654 0
1 13 0 5
75
76
77
78
79
2.849999999999861 2.750000000000697 0
2.899999999999995 2.500000000000022 0
2.949999999999889 2.250000000000554 0
2.999999999999998 2.000000000000011 0
3.049999999999968 1.750000000000161 0
1 14 0 1
80
3.25 1.5 0
1 15 0 1
81
3.6 1.5 0
1 16 0 1
82
3.8 1.75 0
1 17 0 1
83
3.8 2.150000000000185 0
1 18 0 1
84
3.924999999999715 2.100000000000455 0
1 19 0 1
85
4.174999999999681 1.700000000000511 0
1 20 0 1
86
4.5 1.5 0
1 21 0 1
87
4.550000000000419 1.799999999999162 0
1 22 0 1
88
4.300000000000001 2.3 0
1 23 0 1
89
4.399999999998593 2.549999999999649 0
1 24 0 1
90
4.699999999999999 2.75 0
1 25 0 1
91
4.8 3.199999999999089 0
1 26 0 1
92
4.699999999999999 3.7 0
1 27 0 1
93
4.400000000002951 3.949999999999262 0
1 28 0 1
94
3.999999999998565 4 0
1 29 0 1
95
3.6 4 0
1 30 0 1
96
3.4 3.8 0
1 31 0 1
97
3.4 3.250000000001761 0
1 32 0 1
98
3.4 2.7 0
1 33 0 5
99
100
101
102
103
3.350000000000048 2.333333333333009 0
3.300000000000007 2.66666666666662 0
3.250000000000131 2.999999999999129 0
3.200000000000009 3.333333333333276 0
3.149999999999927 3.666666666667155 0
1 34 0 1
104
2.9 4 0
1 35 0 1
105
2.600000000000468 3.650000000001636 0
1 36 0 3
106
107
108
2.425000000000268 3.474999999999374 0
2.350000000000359 3.649999999999162 0
2.274999999999604 3.825000000000925 0
1 37 0 1
109
1.950000000001559 4 0
1 38 0 1
110
1.500000000001433 4 0
1 39 0 1
111
1.050000000000104 4 0
1 40 0 1
112
3.4 2.25000000000164 0
1 41 0 1
113
3.8 3.425000000000276 0
1 42 0 1
114
3.8 3.074999999999392 0
1 43 0 1
115
3.95 2.9 0
1 44 0 1
116
4.3 3.25 0
1 45 0 1
117
4.2 3.5 0
1 46 0 1
118
4.199999999999999 3 0
1 47 0 1
119
1.4 2 0
1 48 0 5
120
121
122
123
124
1.533333333333396 2.250000000000474 0
1.566666666666655 2.49999999999991 0
1.599999999999815 2.749999999998613 0
1.63333333333332 2.9999999999999 0
1.666666666666708 3.250000000000312 0
1 49 0 1
125
1.500000000001433 3.5 0
1 50 0 1
126
0.4500000000010534 4 0
1 51 0 1
127
3.949999999999815 3.6 0
1 52 0 3
128
129
130
1.3 3.125000000000115 0
1.3 2.75 0
1.3 2.374999999999908 0
2 1 0 315
131
132
133
134
135
136
137
138
139
140
141
142
143
144
145
146
147
148
149
150
151
152
153
154
155
156
157
158
159
160
161
162
163
164
165
166
167
168
169
170
171
172
173
174
175
176
177
178
179
180
181
182
183
184
185
186
187
188
189
190
191
192
193
194
195
196
197
198
199
200
201
202
203
204
205
206
207
208
209
210
211
212
213
214
215
216
217
218
219
220
221
222
223
224
225
226
227
228
229
230
231
232
233
234
235
236
237
238
239
240
241
242
243
244
245
246
247
248
249
250
251
252
253
254
255
256
257
258
259
260
261
262
263
264
265
266
267
268
269
270
271
272
273
274
275
276
277
278
279
280
281
282
283
284
285
286
287
288
289
290
291
292
293
294
295
296
297
298
299
300
301
302
303
304
305
306
307
308
309
310
311
312
313
314
315
316
317
318
319
320
321
322
323
324
325
326
327
328
329
330
331
332
333
334
335
336
337
338
339
340
341
342
343
344
345
346
347
348
349
350
351
352
353
354
355
356
357
358
359
360
361
362
363
364
365
366
367
368
369
370
371
372
373
374
375
376
377
378
379
380
381
382
383
384
385
386
387
388
389
390
391
392
393
394
395
396
397
398
399
400
401
402
403
404
405
406
407
408
409
410
411
412
413
414
415
416
417
418
419
420
421
422
423
424
425
426
427
428
429
430
431
432
433
434
435
436
437
438
439
440
441
442
443
444
445
1.399999999999999 1.75 0
1.701093294460667 1.789342403628016 0
1.05 1.744999999999998 0
2.860000000000002 3.526666666666655 0
1.05 2.375 0
4.345797279792746 2.822525259067358 0
4.572870067901328 3.243926141885324 0
1.05 3.125 0
3.541666666666666 1.816666666666667 0
3.67 2.656666666666668 0
2.47142857142885 2.87380952380947 0
2.068831168831013 3.38506493506481 0
4.345797279792747 3.677474740932644 0
1.919805194805228 3.714177489177328 0
3.288333333333333 1.763333333333335 0
3.940628904623074 2.67500347077607 0
0.45 3.75 0
0.45 1.75 0
4.09642857142857 2.207142857142856 0
1.733333333333967 2.223333333333203 0
1.05 3.75 0
1.499999999999999 3.75 0
3.600000000000002 3.8 0
3.950000000000001 3.8 0
3.6 3.370833333333333 0
3.65 3.105208333333333 0
4.527072066082928 2.983713753373867 0
4.362499999999999 1.75 0
3.600000000000002 2.15 0
4.526306332930613 3.516407618898103 0
2.65 3.15 0
2.830000000000001 3.263333333333327 0
2.680000000000001 3.413333333333328 0
1.45 1.625 0
1.600546647230333 1.644671201814008 0
1.550546647230333 1.769671201814008 0
1.833333333333275 2.749999999999564 0
1.86666666666666 2.99999999999995 0
1.799999999999943 2.499999999999569 0
1.851082251082166 3.192532467532355 0
1.884415584415506 3.442532467532405 0
1.616666666666983 2.111666666666602 0
1.650000000000311 2.361666666666556 0
1.800546647230333 1.644671201814008 0
4 2.4 0
4.070314452311537 2.587501735388035 0
3.870314452311537 2.487501735388035 0
1.600546647230333 1.894671201814008 0
1.717213313897317 2.006337868480609 0
2.47499999999956 2.550000000000558 0
3.500000000000001 2.075 0
3.500000000000001 2.325 0
3.000000000000004 3.166666666666638 0
3.030000000000005 3.429999999999966 0
3.6 2.4 0
3.735 2.478333333333334 0
3.535 2.578333333333334 0
3.6 2.9 0
3.535 2.778333333333334 0
3.735 2.778333333333334 0
1.175 1.622499999999999 0
0.925 1.622499999999999 0
4.073214285714284 2.053571428571428 0
3.948214285714285 2.253571428571428 0
2.084415584415506 3.192532467532405 0
3.805314452311538 2.665835068721369 0
3.700000000000001 2.225 0
1.809902597402614 3.857088744588664 0
2.059902597402614 3.857088744588664 0
1.833879980563564 1.894671201813239 0
1.35 1.625 0
1.225 1.747499999999999 0
3.670833333333333 1.908333333333333 0
3.700000000000001 2.075 0
3.570833333333334 1.983333333333333 0
1.45 1.875 0
4.15 2.7 0
4.272898639896373 2.661262629533679 0
4.222898639896373 2.861262629533678 0
2.780000000000001 3.763333333333327 0
2.980000000000001 3.763333333333327 0
2.3 3.15 0
2.285714285714425 2.936904761904735 0
2.485714285714425 3.086904761904735 0
4.472898639896373 2.711262629533679 0
4.563536033041464 2.791856876686934 0
4.436434672937837 2.903119506220612 0
4.15 3.8 0
4.222898639896373 3.638737370466322 0
4.272898639896374 3.838737370466322 0
2.284415584415506 3.342532467532405 0
3.670833333333333 1.658333333333333 0
3.470833333333333 1.658333333333333 0
2.385714285714067 2.71190476190554 0
4.148214285714285 2.353571428571428 0
4.075000000000001 3.9 0
4.025 3.7 0
4.020314452311537 2.787501735388035 0
2.635714285714425 2.936904761904735 0
2.560714285714342 2.711904761904488 0
1.05 3.5 0
0.925 3.3125 0
1.175 3.3125 0
4.663536033041463 2.941856876686933 0
4.331249999999999 1.625 0
4.206249999999999 1.825 0
2.209415584415686 3.517532467531986 0
4.53125 1.625 0
4.436435033950664 3.171963070942662 0
4.436435033950664 3.321963070942662 0
1.05 2 0
1.175 2.1875 0
0.925 2.1875 0
0.925 1.872499999999999 0
1.175 1.872499999999999 0
3.414999999999999 1.790000000000001 0
3.344166666666666 1.631666666666668 0
2.134902597402794 3.682088744588246 0
4.322898639896373 2.961262629533679 0
4.686435033950664 3.071963070942662 0
4.549971066992128 3.113819947629596 0
1.99431818181812 3.549621212121069 0
3.470833333333333 1.908333333333333 0
1.809902597402614 3.607088744588664 0
1.709902597402614 3.732088744588664 0
1.6 3.625 0
1.6 3.875 0
4.472898639896373 3.788737370466322 0
4.436051806361681 3.596941179915373 0
4.563153166465306 3.708203809449051 0
3.725 3.002604166666666 0
3.525 3.002604166666666 0
4.322898639896374 3.538737370466322 0
1.35 1.875 0
1.05 2.75 0
1.175 2.9375 0
0.925 2.9375 0
4.663153166465307 3.508203809449051 0
1.175 3.625 0
0.925 3.625 0
0.925 3.875 0
1.175 3.875 0
4.248214285714285 2.153571428571428 0
1.883333333333599 2.361666666666216 0
1.850000000000214 2.111666666665832 0
1.275 3.75 0
1.4 3.875 0
1.4 3.625 0
0.925 2.5625 0
1.175 2.5625 0
3.199999999999999 2.000000000000005 0
3.144166666666665 1.881666666666673 0
3.344166666666666 1.881666666666668 0
0.8 1.75 0
3.194166666666666 1.631666666666668 0
0.275 3.625 0
0.275 3.875 0
0.8 3.75 0
0.625 3.875 0
0.625 3.625 0
0.625 1.875 0
0.625 1.625 0
0.275 1.625 0
0.275 1.875 0
3.870314452311537 2.787501735388035 0
3.875 3.9 0
3.700000000000001 3.7 0
3.600000000000001 3.585416666666666 0
3.7 3.485416666666667 0
3.7 3.310416666666666 0
3.725 3.177604166666666 0
4.225 2 0
3.875 3.7 0
3.775000000000002 3.8 0
4.38125 1.925 0
3.500000000000001 3.9 0
3.700000000000001 3.9 0
3.500000000000001 3.7 0
4.413536033041463 3.041856876686934 0
4.54958820041597 3.380166880391713 0
4.413153166465307 3.458203809449051 0
3.625 3.238020833333333 0
3.5 3.485416666666667 0
4.686435033950664 3.371963070942662 0
3.5 3.135416666666666 0
3.100000000000001 2.583333333333321 0
3.050000000000003 2.83333333333331 0
3.149999999999998 2.250000000000011 0
2.720000000000001 3.275555555555552 0
1.533697764820222 1.679780801209339 0
1.922222222222178 2.833333333333002 0
1.744444444444373 2.666666666666131 0
1.800721500721452 3.295021645021631 0
1.600000000000219 2.241111111111124 0
1.70036443148677 1.596447467876005 0
3.980209634874358 2.491667823592024 0
1.644808875931544 2.004225245653739 0
2.483333333332974 2.400000000000209 0
3.466666666666667 2.21666666666694 0
2.953333333333337 3.286666666666644 0
3.623333333333333 2.485555555555556 0
3.623333333333333 2.818888888888889 0
1.049999999999917 1.581666666666666 0
3.982142857142809 2.135714285714361 0
1.934054834054778 3.128354978354903 0
3.803542968207692 2.543890045814246 0
3.6 2.316666666666667 0
1.939935064935336 3.904725829725777 0
1.855919987042379 1.763114134542181 0
1.25 1.664999999999999 0
3.647222222222222 1.988888888888889 0
1.533697764820222 1.846447467876005 0
4.215265759930915 2.740841753022452 0
2.886666666666667 3.842222222222218 0
2.35714285714295 3.05793650793649 0
4.490956448625224 2.802079670813742 0
4.215265759930916 3.759158246977548 0
1.4 1.583333333333333 0
2.222943722943671 3.228354978354937 0
3.580555555555556 1.605555555555555 0
2.290476190476013 2.807936507937098 0
4.032142857142857 2.335714285714285 0
4.083333333333333 3.8 0
4.080209634874358 2.691667823592024 0
2.640476190476222 2.807936507936309 0
1.05 3.375 0
4.642357355360975 2.827904584457956 0
4.237499999999947 1.716666666666752 0
2.306277056277139 3.44502164502129 0
3.49 2.685555555555556 0
4.454166666666666 1.583333333333333 0
4.390956689300443 3.247975380628441 0
1.05 2.125 0
1.05 1.914999999999999 0
3.41 1.693333333333334 0
2.590476190476283 3.05793650793649 0
4.381932426597347 2.640841753022394 0
2.156601731601766 3.788059163059054 0
4.248599093264247 2.940841753022453 0
4.633314044661419 3.042546631753063 0
2.112878787878866 3.583080808080433 0
3.513888888888889 1.988888888888889 0
1.706601731601743 3.654725829725776 0
1.706601731601743 3.821392496392443 0
4.49070120424112 3.697960786610249 0
3.616666666666666 2.968402777777778 0
4.248599093264249 3.559158246977548 0
1.25 1.831666666666666 0
1.05 2.875 0
4.642102110976871 3.638802539632701 0
1.05 3.583333333333333 0
1.050000000000017 3.916666666666667 0
4.232142857142858 2.269047619047619 0
4.381932426598074 3.859158246977425 0
1.911111111111202 2.241111111110164 0
1.800364431487032 2.004225245653227 0
2.473809523809323 2.657936507936862 0
1.283333333333333 3.833333333333333 0
1.283333333333333 3.666666666666667 0
1.05 2.625 0
1.89621212121208 3.533080808080713 0
3.229444444444443 1.921111111111115 0
0.8833333333333333 1.748333333333333 0
3.262777777777778 1.587777777777778 0
3.41 1.860000000000001 0
0.2166666666666666 3.750000000000274 0
0.6833333333333335 3.75 0
0.6833333333333335 1.75 0
0.2166666666666666 1.75 0
3.946876301541025 2.825001156925357 0
3.983333333333095 3.933333333333334 0
3.666666666666667 3.590277777777777 0
1.777777777777951 2.407777777777447 0
3.803542968207692 2.743890045814247 0
0.8833333333333333 3.75 0
3.733333333333333 3.40694444444449 0
3.75 3.085069444444343 0
1.500000000000239 3.916666666666667 0
1.500000000000239 3.583333333333333 0
4.182142857142857 2.069047619047618 0
3.783333333333335 3.733333333333334 0
3.94999999999997 3.666666666666667 0
4.270833333333333 1.916666666666667 0
3.6 3.933333333333333 0
3.466666666666667 3.799999999999999 0
4.466647377994752 3.109213298419731 0
1.4 1.916666666666667 0
3.733333333333334 2.150000000000031 0
4.390956448625224 2.968746337480409 0
4.466392133610647 3.386777920261142 0
3.683333333333334 3.242013888888888 0
3.533333333333334 3.590277777777777 0
4.390701204241121 3.531294119943582 0
3.783333333333335 3.866666666666667 0
4.633058800277314 3.420111253594476 0
0.4500000000001756 3.916666666666667 0
0.4499999999998617 3.583333333333333 0
0.8833333333333333 3.125000000000019 0
0.4500000000001756 1.916666666666667 0
0.8833333333333333 2.374999999999984 0
0.4499999999998617 1.583333333333333 0
3.129444444444438 1.754444444444475 0
3.713888888888889 1.772222222222222 0
4.487500000000069 1.783333333333194 0
4.724290022633777 3.214642047294956 0
3.466666666666667 3.290277777778071 0
3.55 3.125347222222222 0
3.053333333333324 3.620000000000063 0
2.686666666666745 3.608888888889158 0
1.216666666666667 2.374999999999984 0
1.216666666666667 3.125000000000019 0
2.999999999999978 2.722222222222328 0
3.100000000000026 2.999999999999829 0
3.09999999999998 2.166666666666767 0
3.200000000000008 2.38888888888883 0
$EndNodes
$Elements
105 563 1 563
0 1 15 1
1 1 
0 2 15 1
2 2 
0 3 15 1
3 3 
0 4 15 1
4 4 
0 5 15 1
5 5 
0 6 15 1
6 6 
0 7 15 1
7 7 
0 8 15 1
8 8 
0 9 15 1
9 9 
0 10 15 1
10 10 
0 11 15 1
11 11 
0 12 15 1
12 12 
0 13 15 1
13 13 
0 14 15 1
14 14 
0 15 15 1
15 15 
0 16 15 1
16 16 
0 17 15 1
17 17 
0 18 15 1
18 18 
0 19 15 1
19 19 
0 20 15 1
20 20 
0 21 15 1
21 21 
0 22 15 1
22 22 
0 23 15 1
23 23 
0 24 15 1
24 24 
0 25 15 1
25 25 
0 26 15 1
26 26 
0 27 15 1
27 27 
0 28 15 1
28 28 
0 29 15 1
29 29 
0 30 15 1
30 30 
0 31 15 1
31 31 
0 32 15 1
32 32 
0 33 15 1
33 33 
0 34 15 1
34 34 
0 35 15 1
35 35 
0 36 15 1
36 36 
0 37 15 1
37 37 
0 38 15 1
38 38 
0 39 15 1
39 39 
0 40 15 1
40 40 
0 41 15 1
41 41 
0 42 15 1
42 42 
0 43 15 1
43 43 
0 44 15 1
44 44 
0 45 15 1
45 45 
0 46 15 1
46 46 
0 47 15 1
47 47 
0 48 15 1
48 48 
0 49 15 1
49 49 
0 50 15 1
50 50 
0 51 15 1
51 51 
0 52 15 1
52 52 
1 1 1 2
53 1 53 
54 53 2 
1 2 1 2
55 2 54 
56 54 3 
1 3 1 4
57 3 55 
58 55 56 
59 56 57 
60 57 4 
1 4 1 2
61 4 58 
62 58 5 
1 5 1 2
63 5 59 
64 59 6 
1 6 1 2
65 6 60 
66 60 7 
1 7 1 2
67 7 61 
68 61 8 
1 8 1 2
69 8 62 
70 62 9 
1 9 1 2
71 9 63 
72 63 10 
1 10 1 6
73 10 64 
74 64 65 
75 65 66 
76 66 67 
77 67 68 
78 68 11 
1 11 1 4
79 11 69 
80 69 70 
81 70 71 
82 71 12 
1 12 1 4
83 12 72 
84 72 73 
85 73 74 
86 74 13 
1 13 1 6
87 13 75 
88 75 76 
89 76 77 
90 77 78 
91 78 79 
92 79 14 
1 14 1 2
93 14 80 
94 80 15 
1 15 1 2
95 15 81 
96 81 16 
1 16 1 2
97 16 82 
98 82 17 
1 17 1 2
99 17 83 
100 83 18 
1 18 1 2
101 18 84 
102 84 19 
1 19 1 2
103 19 85 
104 85 20 
1 20 1 2
105 20 86 
106 86 21 
1 21 1 2
107 21 87 
108 87 22 
1 22 1 2
109 22 88 
110 88 23 
1 23 1 2
111 23 89 
112 89 24 
1 24 1 2
113 24 90 
114 90 25 
1 25 1 2
115 25 91 
116 91 26 
1 26 1 2
117 26 92 
118 92 27 
1 27 1 2
119 27 93 
120 93 28 
1 28 1 2
121 28 94 
122 94 29 
1 29 1 2
123 29 95 
124 95 30 
1 30 1 2
125 30 96 
126 96 31 
1 31 1 2
127 31 97 
128 97 32 
1 32 1 2
129 32 98 
130 98 33 
1 33 1 6
131 34 99 
132 99 100 
133 100 101 
134 101 102 
135 102 103 
136 103 35 
1 34 1 2
137 35 104 
138 104 36 
1 35 1 2
139 36 105 
140 105 37 
1 36 1 4
141 37 106 
142 106 107 
143 107 108 
144 108 38 
1 37 1 2
145 38 109 
146 109 39 
1 38 1 2
147 39 110 
148 110 40 
1 39 1 2
149 40 111 
150 111 41 
1 40 1 2
151 33 112 
152 112 34 
1 41 1 2
153 42 113 
154 113 43 
1 42 1 2
155 43 114 
156 114 44 
1 43 1 2
157 44 115 
158 115 45 
1 44 1 2
159 46 116 
160 116 47 
1 45 1 2
161 47 117 
162 117 48 
1 46 1 2
163 45 118 
164 118 46 
1 47 1 2
165 49 119 
166 119 50 
1 48 1 6
167 50 120 
168 120 121 
169 121 122 
170 122 123 
171 123 124 
172 124 51 
1 49 1 2
173 51 125 
174 125 52 
1 50 1 2
175 41 126 
176 126 1 
1 51 1 2
177 48 127 
178 127 42 
1 52 1 4
179 52 128 
180 128 129 
181 129 130 
182 130 49 
2 1 3 381
183 37 161 319 163 
184 161 13 162 319 
185 163 319 162 134 
186 131 164 320 166 
187 164 9 165 320 
188 166 320 165 132 
189 123 167 321 168 
190 167 67 68 321 
191 168 321 68 11 
192 123 122 322 167 
193 122 121 169 322 
194 167 322 169 67 
195 51 124 323 171 
196 124 123 170 323 
197 171 323 170 142 
198 121 120 324 173 
199 120 50 172 324 
200 173 324 172 150 
201 9 63 325 165 
202 63 10 174 325 
203 165 325 174 132 
204 18 175 326 177 
205 175 23 176 326 
206 177 326 176 146 
207 50 178 327 172 
208 178 132 179 327 
209 172 327 179 150 
210 73 180 328 72 
211 180 70 71 328 
212 72 328 71 12 
213 33 112 329 182 
214 112 34 181 329 
215 182 329 181 159 
216 13 183 330 162 
217 183 102 184 330 
218 162 330 184 134 
219 33 185 331 187 
220 185 18 186 331 
221 187 331 186 140 
222 44 188 332 190 
223 188 32 189 332 
224 190 332 189 140 
225 7 61 333 192 
226 61 8 191 333 
227 192 333 191 133 
228 18 84 334 194 
229 84 19 193 334 
230 194 334 193 149 
231 123 168 335 170 
232 168 11 195 335 
233 170 335 195 142 
234 140 186 336 196 
235 186 18 177 336 
236 196 336 177 146 
237 18 185 337 197 
238 185 33 182 337 
239 197 337 182 159 
240 38 109 338 199 
241 109 39 198 338 
242 199 338 198 144 
243 10 64 339 174 
244 64 65 200 339 
245 174 339 200 132 
246 8 201 340 191 
247 201 131 202 340 
248 191 340 202 133 
249 139 203 341 205 
250 203 17 204 341 
251 205 341 204 159 
252 50 206 342 178 
253 206 131 166 342 
254 178 342 166 132 
255 45 207 343 209 
256 207 23 208 343 
257 209 343 208 136 
258 35 104 344 211 
259 104 36 210 344 
260 211 344 210 134 
261 37 212 345 214 
262 212 11 213 345 
263 214 345 213 141 
264 136 215 346 217 
265 215 24 216 346 
266 217 346 216 157 
267 28 218 347 220 
268 218 48 219 347 
269 220 347 219 143 
270 8 62 348 201 
271 62 9 164 348 
272 201 348 164 131 
273 11 212 349 195 
274 212 37 221 349 
275 195 349 221 142 
276 15 81 350 223 
277 81 16 222 350 
278 223 350 222 139 
279 11 69 351 213 
280 69 70 224 351 
281 213 351 224 141 
282 23 175 352 225 
283 175 18 194 352 
284 225 352 194 149 
285 48 218 353 227 
286 218 28 226 353 
287 227 353 226 154 
288 23 207 354 176 
289 207 45 228 354 
290 176 354 228 146 
291 73 74 355 230 
292 74 13 229 355 
293 230 355 229 141 
294 52 231 356 233 
295 231 3 232 356 
296 233 356 232 138 
297 24 90 357 216 
298 90 25 234 357 
299 216 357 234 157 
300 19 85 358 236 
301 85 20 235 358 
302 236 358 235 158 
303 37 106 359 221 
304 106 107 237 359 
305 221 359 237 142 
306 32 98 360 189 
307 98 33 187 360 
308 189 360 187 140 
309 20 86 361 235 
310 86 21 238 361 
311 235 361 238 158 
312 47 116 362 240 
313 116 46 239 362 
314 240 362 239 137 
315 4 241 363 243 
316 241 49 242 363 
317 243 363 242 135 
318 49 241 364 245 
319 241 4 244 364 
320 245 364 244 133 
321 15 223 365 247 
322 223 139 246 365 
323 247 365 246 145 
324 13 161 366 229 
325 161 37 214 366 
326 229 366 214 141 
327 23 89 367 208 
328 89 24 215 367 
329 208 367 215 136 
330 107 108 368 248 
331 108 38 199 368 
332 248 368 199 144 
333 46 118 369 249 
334 118 45 209 369 
335 249 369 209 136 
336 25 250 370 234 
337 250 137 251 370 
338 234 370 251 157 
339 142 237 371 252 
340 237 107 248 371 
341 252 371 248 144 
342 34 253 372 181 
343 253 139 205 372 
344 181 372 205 159 
345 51 254 373 256 
346 254 144 255 373 
347 256 373 255 152 
348 144 198 374 255 
349 198 39 257 374 
350 255 374 257 152 
351 27 258 375 260 
352 258 143 259 375 
353 260 375 259 160 
354 32 188 376 262 
355 188 44 261 376 
356 262 376 261 156 
357 48 117 377 219 
358 117 47 263 377 
359 219 377 263 143 
360 131 264 378 202 
361 264 49 245 378 
362 202 378 245 133 
363 56 265 379 267 
364 265 129 266 379 
365 267 379 266 138 
366 26 92 380 268 
367 92 27 260 380 
368 268 380 260 160 
369 3 231 381 270 
370 231 52 269 381 
371 270 381 269 151 
372 40 111 382 272 
373 111 41 271 382 
374 272 382 271 151 
375 22 88 383 273 
376 88 23 225 383 
377 273 383 225 149 
378 27 93 384 258 
379 93 28 220 384 
380 258 384 220 143 
381 65 66 385 275 
382 66 67 274 385 
383 275 385 274 150 
384 132 200 386 179 
385 200 65 275 386 
386 179 386 275 150 
387 70 180 387 224 
388 180 73 230 387 
389 224 387 230 141 
390 40 272 388 277 
391 272 151 276 388 
392 277 388 276 152 
393 151 269 389 276 
394 269 52 278 389 
395 276 389 278 152 
396 129 265 390 280 
397 265 56 279 390 
398 280 390 279 135 
399 51 171 391 254 
400 171 142 252 391 
401 254 391 252 144 
402 34 281 392 283 
403 281 78 282 392 
404 283 392 282 145 
405 4 284 393 244 
406 284 7 192 393 
407 244 393 192 133 
408 14 80 394 285 
409 80 15 247 394 
410 285 394 247 145 
411 139 253 395 246 
412 253 34 283 395 
413 246 395 283 145 
414 1 53 396 287 
415 53 2 286 396 
416 287 396 286 147 
417 3 288 397 290 
418 288 41 289 397 
419 290 397 289 147 
420 7 284 398 292 
421 284 4 291 398 
422 292 398 291 148 
423 5 59 399 294 
424 59 6 293 399 
425 294 399 293 148 
426 45 115 400 228 
427 115 44 295 400 
428 228 400 295 146 
429 28 94 401 226 
430 94 29 296 401 
431 226 401 296 154 
432 42 297 402 299 
433 297 153 298 402 
434 299 402 298 155 
435 67 169 403 274 
436 169 121 173 403 
437 274 403 173 150 
438 44 190 404 295 
439 190 140 196 404 
440 295 404 196 146 
441 41 288 405 271 
442 288 3 270 405 
443 271 405 270 151 
444 43 113 406 300 
445 113 42 299 406 
446 300 406 299 155 
447 44 114 407 261 
448 114 43 301 407 
449 261 407 301 156 
450 39 110 408 257 
451 110 40 277 408 
452 257 408 277 152 
453 52 125 409 278 
454 125 51 256 409 
455 278 409 256 152 
456 19 302 410 193 
457 302 22 273 410 
458 193 410 273 149 
459 153 297 411 304 
460 297 42 303 411 
461 304 411 303 154 
462 42 127 412 303 
463 127 48 227 412 
464 303 412 227 154 
465 22 302 413 305 
466 302 19 236 413 
467 305 413 236 158 
468 29 95 414 307 
469 95 30 306 414 
470 307 414 306 153 
471 30 96 415 306 
472 96 31 308 415 
473 306 415 308 153 
474 137 239 416 251 
475 239 46 309 416 
476 251 416 309 157 
477 50 119 417 206 
478 119 49 264 417 
479 206 417 264 131 
480 17 83 418 204 
481 83 18 197 418 
482 204 418 197 159 
483 46 249 419 309 
484 249 136 217 419 
485 309 419 217 157 
486 47 240 420 311 
487 240 137 310 420 
488 311 420 310 160 
489 43 300 421 301 
490 300 155 312 421 
491 301 421 312 156 
492 153 308 422 298 
493 308 31 313 422 
494 298 422 313 155 
495 143 263 423 259 
496 263 47 311 423 
497 259 423 311 160 
498 29 307 424 296 
499 307 153 304 424 
500 296 424 304 154 
501 137 314 425 310 
502 314 26 268 425 
503 310 425 268 160 
504 41 126 426 289 
505 126 1 287 426 
506 289 426 287 147 
507 2 54 427 286 
508 54 3 290 427 
509 286 427 290 147 
510 3 55 428 232 
511 55 56 267 428 
512 232 428 267 138 
513 4 58 429 291 
514 58 5 294 429 
515 291 429 294 148 
516 56 57 430 279 
517 57 4 243 430 
518 279 430 243 135 
519 6 60 431 293 
520 60 7 292 431 
521 293 431 292 148 
522 78 79 432 282 
523 79 14 285 432 
524 282 432 285 145 
525 16 82 433 222 
526 82 17 203 433 
527 222 433 203 139 
528 21 87 434 238 
529 87 22 305 434 
530 238 434 305 158 
531 25 91 435 250 
532 91 26 314 435 
533 250 435 314 137 
534 31 97 436 313 
535 97 32 315 436 
536 313 436 315 155 
537 155 315 437 312 
538 315 32 262 437 
539 312 437 262 156 
540 102 103 438 184 
541 103 35 211 438 
542 184 438 211 134 
543 36 105 439 210 
544 105 37 163 439 
545 210 439 163 134 
546 49 130 440 242 
547 130 129 280 440 
548 242 440 280 135 
549 129 128 441 266 
550 128 52 233 441 
551 266 441 233 138 
552 13 75 442 317 
553 75 76 316 442 
554 317 442 316 100 
555 102 183 443 101 
556 183 13 317 443 
557 101 443 317 100 
558 76 77 444 318 
559 77 78 281 444 
560 318 444 281 34 
561 100 316 445 99 
562 316 76 318 445 
563 99 445 318 34 
$EndElements
